<?xml version="1.0" encoding="UTF-8" standalone="no"?>
<!DOCTYPE svg PUBLIC "-//W3C//DTD SVG 1.1//EN" "http://www.w3.org/Graphics/SVG/1.1/DTD/svg11.dtd">
<svg width="100%" height="100%" viewBox="0 0 220 250" version="1.1" 
  xmlns="http://www.w3.org/2000/svg" 
  xmlns:xlink="http://www.w3.org/1999/xlink" xml:space="preserve" 
  xmlns:serif="http://www.serif.com/" style="fill-rule:evenodd;clip-rule:evenodd;stroke-linejoin:round;stroke-miterlimit:2;">
  <g transform="matrix(0.818976,0,0,0.854422,18.707,31.1406)">
    <filter id="drop-shadow">
      <feGaussianBlur in="SourceAlpha" stdDeviation="7" />
    </filter>
    <defs>
      <linearGradient id="GradientOverlay">
        <stop offset="0%" stop-color="#000" />
        <stop offset="100%" stop-color="#fff" />
      </linearGradient>
    </defs>
    <path d="M50,40L50,40L120,20L190,40L190,40L220,250L20,250L50,40Z" filter="url(#drop-shadow)" opacity="0.6"/>
    <path d="M40,30L40,30L110,10L180,30L180,30L210,240L10,240L40,30Z" style="fill:rgb(255,225,167);"/>
    <path d="M40,30L40,30L110,10L180,30L180,30L210,240L10,240L40,30Z" style="fill:url(#GradientOverlay);" opacity="0.1"/>
  </g>
  <g transform="matrix(1.13577,0,0,1.13577,-12.5625,-16.0532)">
    <path d="M85.809,85.174C85.331,86.151 88.518,90.125 89.164,92.837C89.94,96.094 90.17,102.485 90.463,104.714C90.531,105.233 90.434,106.029 90.923,106.213C91.725,106.515 94.744,107.883 95.271,106.529C96.267,103.971 97.436,94.122 96.896,90.863C96.557,88.816 93.879,87.923 92.033,86.976C90.185,86.028 86.287,84.197 85.809,85.174Z"/>
    <g transform="matrix(1,0,0,1,0.654908,0.602861)">
      <path d="M85.01,107.514C86.063,108.333 87.383,109.079 88.716,109.027C91.299,108.925 96.535,107.309 100.508,106.906C105.401,106.408 113.813,106.207 118.07,106.043C120.728,105.941 123.786,105.921 126.05,105.922C127.919,105.923 130.895,106.606 131.655,106.052C132.414,105.499 131.419,103.486 130.604,102.602C129.683,101.601 127.85,99.991 126.127,100.048C119.174,100.279 119.577,100.556 114.987,100.78C108.384,101.103 86.786,102.516 81.79,103.638C80.151,104.006 83.855,106.616 85.01,107.514Z"/>
    </g>
    <g transform="matrix(1,0,0,1,-1.04166,0.0594089)">
      <path d="M104.207,105.996C103.616,106.478 106.112,109.731 106.505,111.652C106.898,113.57 106.544,115.567 106.567,117.524C106.596,119.938 106.309,123.96 106.678,126.134C106.952,127.747 107.944,130.516 108.784,130.57C109.624,130.624 111.321,128.095 111.717,126.459C112.43,123.517 113.334,115.869 113.057,112.919C112.897,111.216 111.401,109.812 110.054,108.758C108.579,107.604 104.799,105.513 104.207,105.996Z"/>
    </g>
    <path d="M88.585,115.377C88.703,114.575 86.926,114.922 86.16,115.188C85.144,115.54 83.502,116.461 82.488,117.491C81.371,118.626 79.649,120.216 79.459,121.995C79.268,123.774 80.077,127.113 81.345,128.166C82.614,129.218 86.462,129.151 87.071,128.309C87.679,127.467 84.781,124.966 84.998,123.115C85.25,120.959 88.392,116.698 88.585,115.377Z"/>
    <g transform="matrix(1,0,0,1,1.14676,-4.95836)">
      <path d="M126.133,116.695C124.721,116.457 126.961,122.242 126.433,124.197C125.957,125.956 124.256,127.137 122.963,128.421C121.208,130.165 118.109,132.851 115.905,134.657C113.922,136.281 111.884,137.85 109.739,139.254C107.275,140.865 104.078,142.787 101.122,144.327C97.054,146.446 85.324,151.27 85.333,151.968C85.342,152.666 96.675,149.888 101.176,148.512C105.05,147.328 108.774,145.634 112.342,143.715C116.161,141.661 120.536,138.697 124.089,136.189C127.403,133.849 131.855,130.429 133.659,128.668C134.443,127.903 135.906,128.41 134.909,125.628C134.114,123.41 127.546,116.934 126.133,116.695Z"/>
    </g>
    <path d="M100.5,72.499C100.249,73.076 103.994,75.543 104.359,77.66C105.31,83.181 105.085,101.026 106.209,105.625C106.596,107.213 110.628,106.823 111.099,105.258C112.087,101.971 111.646,90.499 112.141,85.905C112.442,83.108 115.128,80.056 114.068,77.69C113.007,75.325 108.041,72.576 105.78,71.711C104.118,71.075 100.923,71.526 100.5,72.499Z"/>
    <g transform="matrix(1,0,0,1,-0.790646,2.47232)">
      <path d="M113.048,88.619C114.146,88.879 117.673,90.075 119.639,90.182C121.398,90.278 123.535,89.787 124.843,89.263C125.912,88.835 127.147,87.914 127.487,87.039C127.826,86.164 127.392,84.742 126.88,84.013C126.368,83.284 125.328,82.869 124.414,82.665C123.371,82.433 121.857,82.344 120.625,82.62C119.324,82.91 117.758,83.499 116.61,84.409C115.347,85.409 113.642,87.917 113.048,88.619Z"/>
    </g>
    <path d="M107.387,130.353C106.914,130.263 104.002,124.819 102.562,123.081C101.508,121.809 100.151,120.79 98.747,119.922C97.307,119.032 95.6,118.293 93.924,117.744C92.242,117.192 89.521,115.759 88.65,116.614C86.891,118.337 86.294,119.839 86.009,119.603C85.725,119.367 86.103,115.929 86.943,115.2C87.782,114.471 89.868,115.067 91.047,115.231C92.076,115.374 93.052,115.79 94.013,116.185C95.433,116.768 97.862,117.614 99.567,118.728C101.465,119.968 104.1,121.688 105.403,123.625C106.707,125.563 107.861,130.444 107.387,130.353Z"/>
    <path d="M83.539,130.442C84.367,131.171 86.308,130.882 87.229,130.863C87.867,130.849 87.763,130.753 89.066,130.326C89.628,130.141 90.262,129.928 90.928,129.698C92.156,129.274 93.495,128.791 94.7,128.325C97.901,127.086 104.284,124.18 108.271,122.895C111.635,121.811 116.103,121.041 118.626,120.614C120.2,120.348 121.827,120.412 123.409,120.337C124.977,120.262 126.962,120.225 128.116,120.163C128.857,120.123 129.906,120.552 130.334,119.962C130.762,119.372 131.037,117.571 130.686,116.621C130.335,115.671 129.362,114.306 128.227,114.262C126.079,114.179 121.211,115.229 117.794,116.124C112.547,117.498 102.043,120.895 96.748,122.506C93.171,123.593 88.141,125.645 86.023,125.787C84.98,125.857 84.41,124.125 84.039,123.359C83.723,122.704 84.224,120.807 83.799,121.191C83.374,121.575 82.127,124.29 81.491,125.662C80.936,126.863 79.399,126.799 83.539,130.442Z"/>
  </g>
  <g transform="matrix(1.13606,0,0,1.13606,-8.21188,-13.406)">
    <path d="M95.779,147.486C95.461,147.887 97.205,149.901 96.965,150.481C96.628,151.293 88.903,158.647 85.04,161.75C81.546,164.556 73.293,168.592 73.785,169.101C74.277,169.61 83.451,166.77 87.992,164.806C93.216,162.547 101.921,157.284 105.132,155.545C106.531,154.788 106.595,153.24 106.166,152.571C106.078,152.434 104.351,150.741 102.519,149.771C100.657,148.785 96.055,147.138 95.779,147.486Z"/>
    <path d="M87.394,162.802C86.517,163.121 89.569,166.315 89.75,168.3C90.112,172.246 88.906,183.52 89.563,186.481C89.864,187.832 93.035,187.281 93.697,186.065C94.992,183.684 97.117,175.474 97.336,172.194C97.475,170.113 96.525,167.818 95.009,166.386C93.352,164.82 88.27,162.483 87.394,162.802Z"/>
    <path d="M95.007,170.672C96.143,171.4 97.924,173.251 99.689,173.161C104.391,172.922 118.046,169.944 123.222,169.239C125.71,168.9 129.135,169.517 130.749,168.928C131.963,168.485 133.696,166.728 132.905,165.706C132.046,164.594 128.279,162.079 125.589,162.259C119.914,162.637 104.303,166.888 98.851,167.977C96.879,168.371 93.515,168.346 92.875,168.795C92.234,169.244 94.21,170.161 95.007,170.672Z"/>
    <path d="M112.95,168.405C112.484,169.643 115.506,172.741 115.075,175.015C114.601,177.512 109.926,181.955 110.109,183.385C110.293,184.814 114.481,184.699 116.174,183.592C118.31,182.196 122.638,177.676 122.921,175.009C123.203,172.342 119.531,168.69 117.869,167.589C116.484,166.671 113.416,167.168 112.95,168.405Z"/>
    <path d="M64.909,183.635C65.058,184.637 72.363,189.897 75.623,190.813C78.514,191.625 81.508,189.599 84.474,189.132C89.685,188.31 100.529,186.51 106.89,185.885C112.118,185.371 117.462,185.043 122.642,185.38C127.808,185.716 134.625,187.54 137.968,187.905C139.539,188.077 141.955,188.401 142.699,187.572C143.443,186.743 143.365,184.17 142.433,182.933C141.447,181.623 138.885,180.246 136.784,179.715C134.624,179.169 131.908,179.499 129.478,179.656C124.766,179.961 115.48,180.732 108.51,181.542C100.903,182.426 89.469,184.416 83.839,184.959C80.815,185.25 77.758,185.01 74.728,184.798C71.573,184.577 64.76,182.632 64.909,183.635Z"/>
    <path d="M90.192,185.67C88.956,185.847 92.358,189.197 91.649,190.842C90.855,192.684 87.867,195.241 85.428,196.722C81.518,199.096 68.067,203.988 68.189,205.087C68.312,206.186 80.723,204.814 86.163,203.316C91.414,201.871 98.187,197.712 100.827,196.105C101.595,195.637 102.24,194.54 101.999,193.674C101.706,192.62 100.411,190.693 99.067,189.782C97.099,188.448 91.428,185.493 90.192,185.67Z"/>
    <path d="M110.391,189.067C109.461,189.788 116.14,194.566 119.052,197.275C122.241,200.241 126.767,204.856 129.521,206.859C131.28,208.138 134.186,209.625 135.575,209.293C136.964,208.961 137.796,206.526 137.853,204.868C137.916,203.092 137.56,200.093 135.947,198.64C133.744,196.653 128.585,194.43 124.631,192.949C120.371,191.354 111.32,188.346 110.391,189.067Z"/>
  </g>
</svg>
