<?xml version="1.0" encoding="UTF-8" standalone="no"?>
<!DOCTYPE svg PUBLIC "-//W3C//DTD SVG 1.1//EN" "http://www.w3.org/Graphics/SVG/1.1/DTD/svg11.dtd">
<svg width="100%" height="100%" viewBox="0 0 220 250" version="1.1" 
  xmlns="http://www.w3.org/2000/svg" 
  xmlns:xlink="http://www.w3.org/1999/xlink" xml:space="preserve" 
  xmlns:serif="http://www.serif.com/" style="fill-rule:evenodd;clip-rule:evenodd;stroke-linejoin:round;stroke-miterlimit:2;">
  <g transform="matrix(-0.891304,0,0,-0.891304,208.043,227.281)">
    <filter id="drop-shadow">
      <feGaussianBlur in="SourceAlpha" stdDeviation="7" />
    </filter>
    <defs>
      <linearGradient id="GradientOverlay">
        <stop offset="0%" stop-color="#fff" />
        <stop offset="100%" stop-color="#000" />
      </linearGradient>
    </defs>
    <path d="M30,20L30,20L100,0L170,20L170,20L200,230L0,230L30,20Z" filter="url(#drop-shadow)" opacity="0.6"/>
    <path d="M40,30L40,30L110,10L180,30L180,30L210,240L10,240L40,30Z" style="fill:rgb(255,225,167);"/>
    <path d="M40,30L40,30L110,10L180,30L180,30L210,240L10,240L40,30Z" style="fill:url(#GradientOverlay);" opacity="0.1"/>
  </g>
  <g transform="matrix(-1,0,0,-1,221.547,244.427)">
    <path d="M149.823,83.183C149.144,84.371 149.418,88.256 147.952,90.17C145.723,93.081 138.633,98.687 136.448,100.649C135.936,101.109 134.193,102.173 134.841,101.942C138.497,100.639 154.742,95.159 158.382,92.83C159.828,91.905 157.822,89.253 156.682,87.969C155.256,86.361 150.192,82.538 149.823,83.183Z"/>
    <path d="M118.571,87.397C118.755,89.638 137.739,110.133 142.705,116.195C144.702,118.632 146.822,122.076 148.365,123.765C149.359,124.853 150.762,125.955 151.965,126.332C153.12,126.694 154.669,126.723 155.582,126.029C156.496,125.335 157.135,123.559 157.445,122.169C157.755,120.779 157.85,119.126 157.444,117.69C157.038,116.253 156.173,114.648 155.008,113.55C152.367,111.059 146.263,106.094 141.6,102.747C135.528,98.388 118.387,85.155 118.571,87.397Z"/>
    <path d="M118.346,84.588C119.323,85.447 120.768,87.089 122.374,87.474C124.065,87.879 126.521,87.178 128.493,87.019C130.399,86.866 132.584,86.672 134.206,86.522C135.547,86.398 137.293,86.606 138.226,86.119C139.106,85.66 139.526,84.348 139.808,83.597C140.04,82.977 140.432,81.864 139.917,81.614C139.402,81.363 137.784,81.927 136.719,82.096C134.965,82.374 131.773,83.006 129.396,83.283C127.093,83.551 124.295,83.89 122.457,83.756C121.034,83.652 119.362,82.716 118.372,82.476C117.767,82.33 116.518,81.967 116.514,82.319C116.51,82.671 117.616,83.946 118.346,84.588Z"/>
    <path d="M114.33,58.134C113.563,58.859 119.429,64.713 123.132,64.951C127.767,65.248 139.929,63.888 142.96,63.137C145.214,62.577 142.649,57.071 140.361,56.671C135.59,55.837 114.834,57.659 114.33,58.134Z"/>
    <path d="M139.81,55.44C139.822,54.024 145.101,57.599 147.125,59.091C149.048,60.51 152.439,62.055 151.949,64.393C151.056,68.651 143.879,80.91 141.767,84.636C141.231,85.582 140.031,86.416 139.281,86.748C138.667,87.021 137.832,86.821 137.269,86.63C136.729,86.447 136.147,86.064 135.901,85.603C135.656,85.142 135.711,84.439 135.796,83.866C136.368,80.013 138.666,67.224 139.335,62.486C139.664,60.155 139.803,56.208 139.81,55.44Z"/>
    <path d="M118.715,73.13C120.221,72.13 124.116,72.007 126.253,71.78C128.004,71.594 130.328,71.513 131.537,71.769C132.354,71.942 133.243,72.645 133.509,73.316C133.775,73.987 133.805,75.298 133.133,75.795C132.202,76.484 129.708,77.096 127.919,77.451C126.016,77.829 123.501,78.006 121.716,78.061C120.213,78.106 117.713,78.6 117.212,77.778C116.712,76.956 117.358,74.03 118.715,73.13Z"/>
    <path d="M109.682,63.745C109.731,64.063 113.245,67.855 113.515,70.401C114.142,76.316 113.553,93.092 113.445,99.239C113.398,101.928 113.141,104.793 112.867,107.284C112.612,109.6 111.916,112.194 111.799,114.19C111.701,115.881 111.304,117.802 112.168,119.259C113.136,120.89 116.189,123.004 117.604,123.978C118.5,124.594 119.782,125.736 120.664,125.102C122.116,124.057 124.656,120.254 126.321,117.711C127.96,115.206 130.734,110.687 130.651,109.842C130.569,108.996 127.384,111.624 125.825,112.637C124.202,113.691 122.03,115.633 120.916,116.168C120.373,116.428 119.401,116.937 119.139,115.845C118.839,114.591 118.818,111.096 118.833,108.719C118.849,106.092 119.1,102.354 119.235,100.085C119.334,98.421 119.513,96.763 119.645,95.101C119.945,91.347 120.7,81.633 121.03,77.56C121.217,75.26 122.567,72.772 121.629,70.664C120.672,68.513 117.279,65.806 115.288,64.653C113.65,63.704 109.529,62.754 109.682,63.745Z"/>
    <path d="M87.033,82.282C86.49,83.233 87.873,85.184 87.873,86.675C87.874,92.388 85.965,111.763 87.038,116.555C87.574,118.948 93.617,117.779 94.31,115.426C95.759,110.512 96.258,92.817 95.728,87.074C95.493,84.537 92.578,81.769 91.129,80.97C89.873,80.278 87.576,81.331 87.033,82.282Z"/>
    <path d="M74.034,80.751C73.612,81.545 77.365,83.4 78.673,84.185C79.66,84.777 80.743,85.296 81.882,85.461C83.197,85.653 85.045,85.7 86.56,85.332C89.886,84.523 98.932,81.586 101.837,80.607C102.607,80.347 103.575,80.043 103.989,79.458C104.402,78.872 104.46,77.828 104.315,77.093C104.171,76.359 103.71,75.574 103.12,75.05C102.475,74.477 101.281,73.889 100.445,73.656C99.693,73.447 98.852,73.433 98.105,73.656C94.898,74.617 85.215,78.236 81.203,79.419C78.871,80.106 74.455,79.956 74.034,80.751Z"/>
    <path d="M73.629,91.623C74.215,92.541 78.086,95.647 79.613,96.589C80.536,97.158 81.728,97.48 82.792,97.274C86.511,96.554 98.329,93.334 101.926,92.268C102.827,92.001 103.9,91.548 104.378,90.875C104.856,90.203 105.029,88.906 104.795,88.234C104.561,87.561 103.686,87.119 102.974,86.84C102.235,86.552 101.225,86.335 100.364,86.503C96.974,87.163 87.088,89.948 82.633,90.801C79.673,91.368 73.4,91.264 73.629,91.623Z"/>
    <path d="M72.055,103.867C72.409,104.745 74.668,107.241 75.666,108.2C76.331,108.839 77.159,109.351 78.041,109.621C78.993,109.913 80.287,110.185 81.381,109.951C85.228,109.129 97.319,105.781 101.123,104.69C102.194,104.383 103.495,103.804 104.208,103.405C104.682,103.139 105.186,102.791 105.402,102.293C105.618,101.795 105.721,101.005 105.503,100.418C105.285,99.83 104.731,99.112 104.094,98.769C103.4,98.395 102.255,98.182 101.339,98.174C100.423,98.165 99.497,98.47 98.599,98.717C95.285,99.63 84.652,102.785 81.451,103.651C80.783,103.832 80.083,103.895 79.392,103.911C77.826,103.947 71.938,103.578 72.055,103.867Z"/>
    <path d="M67.616,116.264C67.609,117.554 72.086,123.119 73.888,124.65C75.06,125.645 76.945,125.498 78.432,125.451C79.918,125.405 81.844,124.654 82.805,124.372C87.945,122.859 103.89,114.949 107.312,111.572C107.782,111.108 107.734,110.005 107.351,109.589C106.968,109.173 105.812,109.069 105.015,109.076C104.081,109.084 102.816,109.357 101.746,109.636C100.531,109.953 99.055,110.503 97.724,110.98C94.524,112.127 85.804,115.464 82.542,116.521C81.126,116.98 79.491,117.256 78.15,117.325C76.927,117.388 75.715,117.058 74.496,116.935C72.74,116.758 67.618,115.849 67.616,116.264Z"/>
    <path d="M94.721,61.849C95.276,63.36 97.309,65.819 98.554,67.205C99.599,68.367 101.149,69.528 102.194,70.162C102.98,70.639 104,71.019 104.821,71.006C105.642,70.992 106.643,70.572 107.118,70.08C107.594,69.589 107.591,68.61 107.672,68.057C107.734,67.629 107.683,67.187 107.603,66.762C107.508,66.262 107.367,65.586 107.103,65.055C106.827,64.498 106.432,63.875 105.943,63.42C105.304,62.825 104.225,62.028 103.268,61.483C101.996,60.757 99.648,59.625 98.308,59.068C97.318,58.657 95.824,57.679 95.226,58.143C94.628,58.607 94.291,60.679 94.721,61.849Z"/>
    <g transform="matrix(1,0,0,1,0,2)">
      <path d="M87.376,48.819C86.271,48.826 89.117,52.583 88.713,54.479C88.274,56.541 86.381,59.172 84.742,61.189C82.391,64.081 78.03,68.616 74.608,71.834C71.323,74.925 64.443,79.404 64.213,80.497C63.983,81.59 70.375,79.47 73.228,78.392C76.081,77.313 78.77,75.717 81.329,74.025C84.335,72.038 88.494,68.771 91.266,66.47C93.615,64.52 97.279,62.225 97.959,60.219C98.638,58.215 96.787,55.985 95.347,54.435C93.583,52.535 88.482,48.811 87.376,48.819Z"/>
    </g>
  </g>
  <g transform="matrix(-0.863644,0,0,-0.841412,206.525,210.293)">
    <path d="M84.736,146.898C84.921,140.298 85,134.561 84.913,131.048C84.809,126.865 80.128,119.815 80.702,119.222C81.429,118.47 86.275,118.679 88.537,119.956C90.798,121.232 93.914,123.903 94.273,126.878C94.884,131.931 92.149,142.445 92.202,150.274C92.304,165.411 92.432,193.268 91.518,201.002C91.19,203.776 90.849,206.794 89.216,209.061C87.568,211.348 84.1,216.689 81.63,214.725C78.609,212.324 73.492,199.24 71.093,194.653C69.796,192.174 66.056,187.542 67.233,187.201C68.41,186.86 75.615,192.07 78.154,192.608C79.731,192.942 82.294,192.033 82.47,190.431C83.16,184.145 84.033,167.724 84.537,153.216C80.117,154.962 67.786,158.447 62.284,157.787C57.43,157.205 50.621,150.347 50.64,148.873C50.658,147.4 58.524,149.562 62.394,148.946C62.949,148.857 63.551,148.729 64.189,148.572C62.917,147.123 64.908,140.269 64.008,136.518C62.977,132.223 58.901,125.722 59.548,125.225C60.229,124.701 73.968,127.907 75.102,132.544C75.866,135.665 73.289,142.531 71.403,146.342C74.476,145.327 77.418,144.399 79.305,144.31C81.206,144.221 83.424,145.6 84.736,146.898ZM150.075,165.409C148.574,161.502 147.056,158.003 147.345,157.204C147.875,155.742 159.271,157.616 161.356,162.103C161.552,162.526 161.746,163.004 161.937,163.531C163.972,163.223 165.741,162.97 167.111,162.798C170.173,162.413 174.242,161.655 176.37,162.798C178.499,163.941 179.658,167.701 179.88,169.655C180.082,171.419 179.425,174.068 177.707,174.52C175.565,175.082 170.605,173.37 167.026,173.032C166.148,172.949 165.211,172.848 164.233,172.743C166.059,182.454 167.283,195.038 167.522,200.624C167.683,204.366 165.125,208.993 163.456,211.1C162.145,212.755 159.356,214.285 157.506,213.268C154.944,211.86 151.342,206.08 148.081,202.651C145.004,199.416 137.626,193.788 135.749,191.156C133.497,193.279 130.466,195.421 127.807,196.806C124.727,198.41 111.187,201.528 109.292,199.732C108.258,198.751 121.865,190.389 123.096,186.2C123.776,183.884 119.342,179.881 121.334,179.176C123.327,178.471 133.114,180.375 135.051,181.97C136.645,183.282 139.543,184.719 139.026,186.718C138.783,187.659 138.007,188.797 136.911,189.986C140.828,191.029 150.8,196.106 153.169,193.865C156.045,191.143 153.585,179.763 152.615,173.653C152.537,173.163 152.43,172.646 152.299,172.109L152.226,172.114C145.339,172.533 131.562,174.589 125.704,175.551C122.763,176.034 119.725,177.383 117.074,177.885C114.68,178.338 112.054,179.478 109.796,178.561C106.792,177.341 98.483,171.882 99.05,170.563C99.616,169.244 108.488,170.939 113.194,170.648C118.297,170.332 124.194,169.466 129.666,168.669C134.414,167.978 142.426,166.651 150.075,165.409ZM55.874,174.475C54.796,174.545 53.809,174.559 52.959,174.503C48.879,174.232 43.602,167.818 43.614,166.557C43.626,165.295 49.912,167.31 53.031,166.935C57.997,166.337 69.246,162.912 73.411,162.974C75.52,163.005 77.378,166.203 78.024,167.304C78.427,167.992 77.85,169.014 77.288,169.58C76.586,170.285 69.744,172.277 63.061,173.511C62.373,180.496 61.169,191.617 59.85,195.026C59.07,197.039 56.475,198.241 54.615,198.84C51.944,199.699 48.703,197.482 48.14,195.659C47.76,194.427 47.348,193.132 47.476,191.849C47.819,188.401 52.399,179.798 55.874,174.475ZM112.774,129.889C108.748,129.432 100.849,123.227 100.872,121.968C100.896,120.686 110.528,122.267 113.131,122.217C120.774,122.067 133.462,118.23 136.686,117.165C139.078,116.375 142.774,119.89 143.029,121.273C143.375,123.157 141.262,124.988 140.031,124.905C137.237,124.716 126.739,128.48 118.362,129.62C118.541,130.858 118.164,132.99 117.741,134.777C118.072,135.299 118.438,135.741 118.842,135.92C121.332,137.026 126.672,139.076 130.763,138.893C134.972,138.705 140.113,135.466 144.096,134.79C147.568,134.201 152.054,133.796 154.661,134.84C157.145,135.835 158.948,139.046 159.74,141.058C160.455,142.876 160.326,145.183 159.413,146.911C158.188,149.23 152.705,151.664 148.158,154.243C139.61,159.092 113.761,165.924 115.989,163.502C116.681,162.75 143.098,150.112 144.672,141.973C145.012,140.213 139.532,140.201 137.228,141.16C134.376,142.345 129.906,147.931 127.565,149.088C126.222,149.752 124.179,149.218 123.18,148.102C121.834,146.596 120.826,141.101 119.487,140.055C118.445,139.241 116.495,142.006 115.551,142.084C114.668,144.628 113.614,147.277 112.503,149.333C110.513,153.016 106.932,157.616 104.86,159.296C103.618,160.302 101.362,159.956 100.068,159.412C99.018,158.971 97.812,155.807 98.504,153.765C100.174,148.843 109.303,134.281 112.565,130.124C112.628,130.044 112.698,129.965 112.774,129.889Z"/>
  </g>
</svg>
