<?xml version="1.0" encoding="UTF-8" standalone="no"?>
<!DOCTYPE svg PUBLIC "-//W3C//DTD SVG 1.1//EN" "http://www.w3.org/Graphics/SVG/1.1/DTD/svg11.dtd">
<svg width="100%" height="100%" viewBox="0 0 220 250" version="1.1" 
  xmlns="http://www.w3.org/2000/svg" 
  xmlns:xlink="http://www.w3.org/1999/xlink" xml:space="preserve" 
  xmlns:serif="http://www.serif.com/" style="fill-rule:evenodd;clip-rule:evenodd;stroke-linejoin:round;stroke-miterlimit:2;">
  <g transform="matrix(0.93913,0,0,0.93913,6.69565,4.89564)">
    <filter id="drop-shadow">
      <feGaussianBlur in="SourceAlpha" stdDeviation="7" />
    </filter>
    <defs>
      <linearGradient id="GradientOverlay">
        <stop offset="0%" stop-color="#000" />
        <stop offset="100%" stop-color="#fff" />
      </linearGradient>
    </defs>
    <path d="M50,40L50,40L120,20L190,40L190,40L220,250L20,250L50,40Z" filter="url(#drop-shadow)" opacity="0.6"/>
    <path d="M40,30L40,30L110,10L180,30L180,30L210,240L10,240L40,30Z" style="fill:rgb(255,225,167);"/>
    <path d="M40,30L40,30L110,10L180,30L180,30L210,240L10,240L40,30Z" style="fill:url(#GradientOverlay);" opacity="0.1"/>
  </g>
  <g transform="matrix(1,0,0,1,1.19653,0)">
    <path d="M100.674,31.508C99.9,32.334 101.611,35.301 101.103,37.099C100.574,38.971 99.049,41.132 97.5,42.736C95.548,44.755 92.261,47.278 89.394,49.214C86.306,51.299 81.45,53.754 78.969,55.247C77.446,56.163 74.415,57.6 74.509,58.169C74.603,58.738 77.86,58.84 79.532,58.66C82.394,58.353 87.832,57.608 91.676,56.325C95.521,55.042 99.257,53.258 102.6,50.96C106.11,48.547 111.003,44.035 112.74,41.844C113.577,40.788 113.322,38.943 113.024,37.812C112.731,36.701 111.858,35.764 110.951,35.058C109.738,34.113 107.456,32.733 105.743,32.141C104.134,31.585 101.447,30.682 100.674,31.508Z"/>
    <path d="M104.772,47.404C104.503,48.232 110.454,50.388 110.77,51.784C111.086,53.18 108.221,54.669 106.669,55.78C104.967,56.997 102.589,57.969 100.561,59.086C97.559,60.741 88.788,64.585 88.658,65.709C88.527,66.833 96.862,66.061 99.779,65.831C101.957,65.659 104.119,65.108 106.16,64.328C108.935,63.268 113.867,60.712 116.428,59.469C118.145,58.637 120.38,57.516 121.529,56.875C122.166,56.52 123.132,56.328 123.325,55.625C123.586,54.675 123.507,52.292 123.095,51.172C122.728,50.176 121.838,49.308 120.854,48.908C119.068,48.182 115.06,47.066 112.38,46.815C109.847,46.578 105.04,46.576 104.772,47.404Z"/>
    <path d="M75.299,66.405C74.215,66.823 78.661,73.207 79.551,75.878C80.251,77.98 80.79,80.224 80.639,82.434C80.28,87.677 77.935,101.961 77.395,107.34C77.149,109.784 77.025,112.847 77.395,114.709C77.68,116.149 78.734,117.59 79.611,118.515C80.415,119.364 81.629,120.254 82.655,120.262C83.682,120.27 85.14,119.565 85.769,118.565C86.46,117.465 86.669,115.327 86.803,113.662C87.23,108.362 87.965,92.559 88.333,86.762C88.5,84.132 89.39,81.116 89.011,78.884C88.661,76.828 87.599,74.773 86.056,73.369C83.771,71.289 76.383,65.986 75.299,66.405Z"/>
    <path d="M87.739,70.797C86.367,71.689 92.105,74.97 93.618,75.884C94.539,76.44 95.745,76.234 96.819,76.282C97.993,76.334 99.388,76.342 100.66,76.197C104.906,75.713 117.882,73.804 122.295,73.381C123.904,73.227 125.923,73.365 127.136,73.66C128.062,73.886 129.054,74.355 129.574,75.154C130.303,76.273 131.332,78.529 131.509,80.377C132.053,86.049 132.7,104 132.839,109.183C132.86,109.965 132.704,111.462 132.342,111.476C131.374,111.513 117.655,108.825 117.679,109.541C117.749,111.599 130.095,121.375 133.43,123.782C134.582,124.614 136.501,124.767 137.688,123.985C139.079,123.07 141.03,120.504 141.777,118.289C142.679,115.613 143.082,111.412 143.099,107.931C143.121,103.442 142.697,96.838 141.909,91.355C140.995,85.001 138.876,74.07 137.617,69.811C137.129,68.159 135.637,66.622 134.356,65.8C133.087,64.985 131.436,64.879 129.929,64.876C128.009,64.872 125.174,65.305 122.839,65.775C118.159,66.718 107.698,69.695 101.848,70.532C97.192,71.198 89.111,69.905 87.739,70.797Z"/>
    <path d="M85.421,82.245C85.103,81.116 93.597,84.088 97.732,83.881C103.016,83.617 113.354,81.195 117.127,80.658C118.198,80.506 119.32,80.403 120.37,80.658C121.451,80.92 123.005,81.42 123.61,82.232C124.214,83.045 124.095,84.629 123.999,85.533C123.916,86.307 123.717,87.288 123.032,87.658C121.645,88.407 118.231,89.703 115.675,90.03C111.776,90.529 104.682,91.951 99.64,90.653C94.597,89.355 85.739,83.373 85.421,82.245Z"/>
    <path d="M85.804,96.83C84.994,97.615 91.707,101.667 94.093,102.879C95.922,103.808 98.072,104.139 100.123,104.102C103.456,104.042 110.307,103.159 114.093,102.519C117.061,102.016 121.179,101.143 122.836,100.258C123.801,99.743 124.236,98.038 124.036,97.206C123.835,96.373 122.603,95.614 121.635,95.262C120.439,94.828 118.452,94.395 116.857,94.599C113.077,95.083 104.128,97.797 98.952,98.169C94.558,98.484 86.613,96.045 85.804,96.83Z"/>
    <path d="M102.355,74.181C102.101,83.473 101.592,102.059 101.505,109.847C101.464,113.537 101.405,118.105 101.833,120.912C102.145,122.954 102.831,127.162 104.076,126.69C105.322,126.217 108.243,121.262 109.308,118.076C110.471,114.596 110.894,109.938 111.055,105.812C111.353,98.187 111.18,80.947 111.093,72.327"/>
  </g>
  <g transform="matrix(1,0,0,1,4.79136,0)">
    <path d="M72.154,126.439C70.753,126.868 73.589,129.806 73.235,131.491C72.791,133.602 71.282,136.918 69.49,139.106C67.17,141.94 62.586,145.872 59.314,148.494C56.353,150.867 49.612,154.224 49.861,154.838C50.11,155.452 57.283,153.472 60.808,152.178C64.883,150.683 70.337,148.117 74.309,145.867C77.961,143.799 82.883,140.891 84.644,138.679C85.909,137.092 85.379,134.223 84.879,132.596C84.399,131.035 83.112,129.629 81.642,128.918C79.521,127.892 73.555,126.01 72.154,126.439Z"/>
    <path d="M75.15,146.621C73.792,146.765 76.308,150.047 75.634,151.557C74.371,154.39 70.518,159.986 67.568,163.624C64.688,167.175 61.529,170.563 57.931,173.383C53.108,177.164 40.309,184.483 38.628,186.31C37.707,187.31 45.928,186.322 49.2,185.452C52.406,184.599 55.727,183.481 58.457,181.886C64.999,178.062 81.292,163.267 85.94,158.667C86.983,157.635 86.709,155.615 86.35,154.286C85.99,152.956 85.001,151.522 83.786,150.69C81.919,149.413 76.509,146.476 75.15,146.621Z"/>
    <path d="M69.257,169.664C68.808,171.111 70.453,174.786 70.112,177.337C69.56,181.469 66.835,189.683 65.946,194.454C65.24,198.245 64.712,203.394 64.779,205.963C64.816,207.366 65.58,209.213 66.352,209.869C67.125,210.526 68.528,210.409 69.414,209.902C70.479,209.293 72.134,207.755 72.746,206.216C74.063,202.907 76.437,194.981 77.316,190.052C78.101,185.645 78.766,180.208 78.015,176.642C77.359,173.532 74.267,169.817 72.807,168.654C71.845,167.888 69.622,168.489 69.257,169.664Z"/>
    <path d="M102.857,137.566C101.457,138.906 107.677,143.735 109.699,145.069C111.177,146.044 113.225,145.729 114.989,145.569C121.07,145.018 140.359,142.898 146.185,141.76C147.762,141.452 149.352,139.714 149.944,138.74C150.433,137.934 150.441,136.543 149.734,135.918C148.635,134.949 145.001,133.513 143.353,132.921C142.239,132.521 141.014,132.177 139.846,132.367C135.638,133.052 124.268,136.163 118.103,137.03C113.067,137.738 104.258,136.226 102.857,137.566Z"/>
    <path d="M93.197,158.038C94.564,159.328 97.654,162.764 100.086,163.975C102.419,165.137 105.771,165.283 107.79,165.305C109.314,165.321 110.724,164.481 112.201,164.105C114.681,163.475 119.418,162.235 122.672,161.52C125.672,160.862 128.675,160.167 131.725,159.818C134.85,159.461 138.191,159.171 141.419,159.377C145.156,159.615 151.066,160.65 154.148,161.246C156.116,161.627 158.269,162.7 159.912,162.956C161.264,163.166 163.072,163.248 164.012,162.782C164.919,162.333 165.501,161.105 165.552,160.163C165.603,159.221 164.907,158.048 164.317,157.129C163.664,156.113 162.777,154.799 161.635,154.065C160.46,153.308 158.776,152.872 157.265,152.591C155.224,152.212 152.027,151.818 149.388,151.791C145.701,151.754 139.49,151.935 135.144,152.367C131.165,152.761 127.253,153.668 123.317,154.378C119.059,155.146 113.118,156.473 109.594,156.975C107.142,157.324 104.649,157.493 102.174,157.39C99.222,157.267 93.381,156.13 91.885,156.238C91.145,156.291 92.657,157.529 93.197,158.038Z"/>
    <path d="M125.389,158.415C123.502,158.353 132.697,165.005 135.055,168.959C137.413,172.913 139.032,177.526 139.535,182.139C140.049,186.848 138.934,197.572 138.138,197.215C133.259,195.027 109.587,181.978 108.28,182.776C106.973,183.574 125.522,197.845 130.295,202.003C132.494,203.919 135.294,206.194 136.916,207.723C138.044,208.786 138.654,210.461 140.028,211.177C141.589,211.991 144.359,213.074 146.282,212.606C148.205,212.139 150.767,210.481 151.566,208.37C152.491,205.927 152.29,201.394 151.832,197.95C150.968,191.444 150.785,175.918 146.377,169.329C141.993,162.774 127.276,158.476 125.389,158.415Z"/>
  </g>
</svg>
