<?xml version="1.0" encoding="UTF-8" standalone="no"?>
<!DOCTYPE svg PUBLIC "-//W3C//DTD SVG 1.1//EN" "http://www.w3.org/Graphics/SVG/1.1/DTD/svg11.dtd">
<svg width="100%" height="100%" viewBox="0 0 220 250" version="1.1" 
  xmlns="http://www.w3.org/2000/svg" 
  xmlns:xlink="http://www.w3.org/1999/xlink" xml:space="preserve" 
  xmlns:serif="http://www.serif.com/" style="fill-rule:evenodd;clip-rule:evenodd;stroke-linejoin:round;stroke-miterlimit:2;">
  <g transform="matrix(0.879839,0,0,0.878261,13.2177,18.0761)">
    <filter id="drop-shadow">
      <feGaussianBlur in="SourceAlpha" stdDeviation="7" />
    </filter>
    <defs>
      <linearGradient id="GradientOverlay">
        <stop offset="0%" stop-color="#000" />
        <stop offset="100%" stop-color="#fff" />
      </linearGradient>
    </defs>
    <path d="M50,40L50,40L120,20L190,40L190,40L220,250L20,250L50,40Z" filter="url(#drop-shadow)" opacity="0.6"/>
    <path d="M40,30L40,30L110,10L180,30L180,30L210,240L10,240L40,30Z" style="fill:rgb(255,225,167);"/>
    <path d="M40,30L40,30L110,10L180,30L180,30L210,240L10,240L40,30Z" style="fill:url(#GradientOverlay);" opacity="0.1"/>
  </g>
  <g transform="matrix(1,0,0,1,-3.96379,-8.50171)">
    <path d="M87.65,181.36C87.815,182.417 95.673,191.108 99.255,193.323C101.822,194.91 126.307,188.379 134.646,187.883C139.587,187.589 146.205,189.213 149.287,190.347C151.102,191.014 153.074,192.753 153.138,194.686C153.218,197.085 151.571,201.701 149.764,204.739C147.383,208.745 140.472,219.095 138.85,218.723C135.313,217.911 118.651,211.628 118.742,212.087C118.815,212.455 131.688,224.37 135.796,226.602C138.043,227.824 141.214,226.831 143.388,225.482C146.99,223.246 153.868,217.48 157.411,213.19C160.651,209.265 163.434,203.29 164.642,199.741C165.484,197.265 165.665,194.201 164.654,191.895C163.643,189.589 161.08,187.256 158.576,185.906C155.578,184.289 149.535,182.672 146.665,182.195C139.932,181.075 124.046,184.328 117.146,185.414C111.264,186.341 106.638,187.178 105.221,187.219C103.549,187.266 100.732,187.959 98.266,186.981C93.414,185.058 87.486,180.303 87.65,181.36Z"/>
    <path d="M68.096,195.761C66.581,196.002 68.844,201.787 69.221,204.744C69.594,207.666 69.531,211.262 70.359,213.506C71.059,215.403 72.684,218.092 74.191,218.207C75.698,218.322 78.815,216.307 79.399,214.195C80.086,211.71 80.198,206.368 78.314,203.296C76.43,200.223 69.612,195.519 68.096,195.761Z"/>
    <path d="M82.546,196.618C82.211,197.763 85.972,201.945 87.256,204.782C88.54,207.62 88.827,211.608 90.247,213.643C91.482,215.412 94.348,217.03 95.781,216.996C97.214,216.962 98.488,214.964 98.845,213.441C99.277,211.593 99.695,208.05 98.374,205.91C96.777,203.321 91.899,199.46 89.261,197.911C87.295,196.757 82.88,195.473 82.546,196.618Z"/>
    <path d="M101.034,198.32C100.854,198.663 103.471,202.698 105.007,204.664C106.63,206.741 108.929,209.548 110.771,210.785C112.278,211.796 114.393,212.552 116.058,212.081C117.723,211.609 120.785,209.573 120.763,207.955C120.741,206.336 117.704,203.819 115.924,202.368C114.213,200.972 112.213,199.824 110.083,199.245C107.601,198.571 101.609,197.225 101.034,198.32Z"/>
    <path d="M121.164,196.708C120.227,198.225 128.405,205.705 131.33,207.145C133.602,208.264 137.776,206.867 138.713,205.35C139.65,203.832 139.201,199.149 136.953,198.042C134.028,196.601 122.101,195.191 121.164,196.708Z"/>
    <path d="M107.2,149.473C105.745,149.745 112.054,156.06 112.166,158.482C112.362,162.733 111.475,183.854 112.663,188.787C113.183,190.947 119.194,190.502 119.291,188.081C119.42,184.871 120.629,158.4 120.894,156.85C121.274,154.627 108.654,149.201 107.2,149.473Z"/>
    <path d="M94.999,164.93C96.616,165.948 99.735,168.528 102.47,168.36C108.179,168.008 123.82,163.861 129.252,162.822C131.169,162.455 133.893,162.651 135.065,162.124C135.901,161.747 136.714,160.467 136.285,159.656C135.802,158.745 133.864,156.538 132.173,156.66C126.596,157.064 109.394,161.145 102.827,162.078C99.508,162.549 94.075,161.78 92.77,162.256C91.68,162.653 94.017,164.312 94.999,164.93Z"/>
    <path d="M95.418,176.972C97.009,177.926 100.38,180.905 103.306,180.83C109.269,180.678 125.93,176.982 131.198,176.059C132.443,175.841 133.882,175.819 134.913,175.292C135.935,174.769 137.457,173.782 137.383,172.894C137.309,172.006 135.631,170.452 134.471,169.964C133.311,169.475 131.761,169.794 130.422,169.964C123.637,170.821 102.059,176.452 93.762,175.106C92.942,174.973 94.705,176.544 95.418,176.972Z"/>
    <path d="M91.677,150.07C90.275,150.448 97.088,154.585 100.168,155.087C103.248,155.588 106.837,153.794 110.158,153.078C114.585,152.124 122.554,150.085 126.734,149.363C129.535,148.88 133.074,148.894 135.238,148.749C136.73,148.65 138.493,149.032 139.716,148.495C140.939,147.958 142.537,146.459 142.578,145.528C142.619,144.597 141.048,143.492 139.959,142.909C138.468,142.11 135.835,140.408 133.628,140.735C125.581,141.929 96.303,148.821 91.677,150.07Z"/>
    <path d="M79.69,141.06C77.764,141.418 83.522,148.415 84.248,152.435C85.25,157.98 85.313,168.334 85.7,174.332C86.004,179.027 86.136,185.301 86.574,188.419C86.803,190.049 87.408,192.08 88.327,193.036C89.233,193.979 91.052,194.442 92.085,194.155C93.119,193.867 94.189,192.513 94.529,191.31C95.079,189.363 95.294,185.43 95.385,182.472C95.597,175.635 96.169,153.396 95.801,150.288C95.467,147.468 81.615,140.703 79.69,141.06Z"/>
  </g>
  <g transform="matrix(1,0,0,1,-2.43938,-8.54118)">
    <g transform="matrix(1,0,0,1,-4.11232,-1.74672)">
      <path d="M103.011,128.372C102.651,129.662 107.252,135.183 110.78,135.777C114.983,136.484 122.409,133.237 128.226,132.616C134.016,131.998 139.862,131.991 145.684,132.05C151.508,132.109 161.156,134.048 163.175,132.971C165.193,131.893 160.433,127.086 157.795,125.586C155.157,124.085 150.846,124.176 147.347,123.968C142.17,123.661 122.685,126.496 112.938,128.036C109.667,128.552 103.37,127.082 103.011,128.372Z"/>
    </g>
    <g transform="matrix(1,0,0,1,-0.31375,1.68995)">
      <path d="M122.009,100.888C120.933,101.071 124.013,104.261 124.219,106.154C124.686,110.439 123.959,123.386 124.808,126.597C125.204,128.097 128.904,126.917 129.312,125.42C130.289,121.83 131.408,106.967 130.672,105.056C129.873,102.981 123.084,100.705 122.009,100.888Z"/>
    </g>
    <path d="M108.15,113.754C108.416,114.614 112.378,117.615 115.009,117.659C120.526,117.752 135.979,115.138 141.255,114.312C143.113,114.021 146.188,113.473 146.662,112.704C147.467,111.396 145.899,110.472 145.04,109.775C144.18,109.079 142.75,108.418 141.506,108.526C136.235,108.98 118.975,111.631 113.416,112.503C111.633,112.782 107.885,112.895 108.15,113.754Z"/>
    <path d="M108.334,101.337C108.543,102.165 112.387,105.288 114.962,105.308C120.402,105.348 136.162,102.395 140.976,101.581C141.993,101.409 143.167,100.858 143.847,100.424C144.375,100.086 144.613,99.902 145.052,98.978C145.358,98.333 141.491,95.293 138.736,95.312C133.681,95.346 118.776,99.336 113.709,100.34C111.921,100.695 108.125,100.509 108.334,101.337Z"/>
    <g transform="matrix(0.999625,-0.0273911,0.0273911,0.999625,-2.64376,2.54122)">
      <path d="M83.702,59.193C81.962,59.462 88.824,64.777 88.937,68.268C89.302,79.491 86.455,116.032 85.889,126.533C85.804,128.115 85.186,129.837 85.538,131.272C85.889,132.708 87.191,134.309 88,135.145C88.615,135.78 89.571,136.614 90.394,136.29C91.372,135.904 93.033,134.234 93.869,132.832C94.705,131.429 95.296,129.602 95.408,127.875C95.995,118.774 96.731,88.425 97.393,78.221C97.646,74.316 99.891,67.671 99.376,66.652C97.615,63.164 85.442,58.924 83.702,59.193Z"/>
    </g>
    <path d="M89.918,89.667C85.463,93.691 70.06,114.544 65.999,120.127C65.397,120.954 65.096,122.245 65.549,123.163C66.018,124.114 67.47,125.758 68.813,125.832C70.155,125.907 72.504,124.983 73.605,123.609C77.59,118.633 90.005,101.636 92.724,95.979C93.721,93.904 91.626,88.123 89.918,89.667Z"/>
    <path d="M67.516,84.216C66.701,85.289 72.696,88.854 74.898,90.103C76.65,91.096 78.791,91.405 80.724,91.705C82.627,92.001 84.607,92.269 86.497,91.902C90.629,91.102 102.114,87.95 105.515,86.902C106.118,86.716 106.642,86.189 106.903,85.614C107.201,84.956 107.483,83.792 107.305,82.953C107.126,82.114 106.609,81.093 105.833,80.58C104.946,79.994 103.308,79.24 101.985,79.437C97.775,80.065 86.319,83.548 80.575,84.344C76.263,84.942 67.949,83.644 67.516,84.216Z"/>
    <path d="M108.268,88.474C107.86,88.615 107.706,88.938 107.687,89.242C107.581,90.925 112.367,93.836 114.752,93.896C120.076,94.029 135.283,90.051 140.212,89.273C141.566,89.059 143.402,89.924 144.324,89.226C145.246,88.528 146.429,86.373 145.743,85.085C144.995,83.682 142.156,80.076 139.838,80.808C116.462,88.186 109.308,88.114 108.268,88.474Z"/>
    <path d="M115.969,59.466C113.804,59.573 120.006,62.783 120.433,65.156C121.683,72.114 122.008,95.28 123.47,101.215C123.928,103.076 129.089,102.677 129.202,100.764C129.439,96.737 133.203,65.237 133.426,64.515C134.137,62.217 118.135,59.359 115.969,59.466Z"/>
  </g>
</svg>
