<?xml version="1.0" encoding="UTF-8" standalone="no"?>
<!DOCTYPE svg PUBLIC "-//W3C//DTD SVG 1.1//EN" "http://www.w3.org/Graphics/SVG/1.1/DTD/svg11.dtd">
<svg width="100%" height="100%" viewBox="0 0 220 250" version="1.1" 
  xmlns="http://www.w3.org/2000/svg" 
  xmlns:xlink="http://www.w3.org/1999/xlink" xml:space="preserve" 
  xmlns:serif="http://www.serif.com/" style="fill-rule:evenodd;clip-rule:evenodd;stroke-linejoin:round;stroke-miterlimit:2;">
  <g transform="matrix(-0.891304,0,0,-0.891304,205.326,228.915)">
    <filter id="drop-shadow">
      <feGaussianBlur in="SourceAlpha" stdDeviation="7" />
    </filter>
    <defs>
      <linearGradient id="GradientOverlay">
        <stop offset="0%" stop-color="#fff" />
        <stop offset="100%" stop-color="#000" />
      </linearGradient>
    </defs>
    <path d="M30,20L30,20L100,0L170,20L170,20L200,230L0,230L30,20Z" filter="url(#drop-shadow)" opacity="0.6"/>
    <path d="M40,30L40,30L110,10L180,30L180,30L210,240L10,240L40,30Z" style="fill:rgb(255,225,167);"/>
    <path d="M40,30L40,30L110,10L180,30L180,30L210,240L10,240L40,30Z" style="fill:url(#GradientOverlay);" opacity="0.1"/>
  </g>
  <g transform="matrix(-1.08963,0,0,-1.08963,231.043,250.019)">
    <path d="M81.013,111.514C82.263,112.906 84.429,116.428 87.067,116.655C92.189,117.098 103.671,114.494 111.745,114.167C119.662,113.846 130.298,114.598 135.511,114.692C138.015,114.737 141.24,115.099 143.023,114.732C144.296,114.47 145.913,113.562 146.211,112.491C146.509,111.42 145.871,109.294 144.811,108.305C143.751,107.317 141.575,106.871 139.849,106.56C138.117,106.247 136.227,106.325 134.419,106.432C126.144,106.921 99.341,109.181 90.199,109.493C86.635,109.615 81.098,107.966 79.567,108.302C78.42,108.555 80.229,110.64 81.013,111.514Z"/>
    <path d="M103.956,37.473C102.146,37.983 105.297,42.697 104.347,45.036C102.514,49.551 96.981,59.144 92.958,64.562C89.341,69.432 84.727,73.5 80.206,77.543C75.681,81.589 65.925,87.601 65.812,88.839C65.699,90.077 75.611,86.584 79.527,84.973C83.032,83.531 86.334,81.523 89.308,79.173C92.63,76.548 96.334,72.781 99.463,69.222C104.019,64.039 113.723,52.121 116.644,48.078C117.256,47.231 117.23,45.979 116.989,44.963C116.749,43.946 116.209,42.554 115.203,41.976C113.031,40.728 105.765,36.963 103.956,37.473Z"/>
    <path d="M109.269,52.853C113.431,56.22 128.354,65.771 134.862,70.638C139.573,74.16 145.022,79.818 148.317,82.054C150.143,83.293 153.295,84.268 154.629,84.052C155.847,83.856 156.252,81.993 156.321,80.761C156.413,79.123 156.455,76.033 155.18,74.227C153.651,72.059 150.03,69.627 147.145,67.757C143.193,65.195 135.983,61.226 131.468,58.855C127.751,56.903 123.651,54.933 120.054,53.529C116.754,52.241 111.686,50.546 109.888,50.433C109.057,50.381 108.622,52.329 109.269,52.853Z"/>
    <path d="M94.733,71.572C92.832,72.748 98.274,74.944 100.508,74.976C105.06,75.041 118.022,72.868 122.042,71.959C123.197,71.698 124.925,70.535 124.629,69.522C124.333,68.509 121.994,66.39 120.265,65.881C118.537,65.372 116.223,66.031 114.259,66.469C110.004,67.417 97.024,70.154 94.733,71.572Z"/>
    <path d="M107.951,71.04C105.693,74.259 106.965,86.978 107.422,91.407C107.912,96.156 110.262,103.09 111.29,105.198C111.666,105.968 113.079,104.741 113.591,104.054C114.453,102.897 116.017,100.366 116.462,98.255C117.016,95.624 116.943,91.133 116.916,88.268C116.86,82.365 111.049,66.622 107.951,71.04Z"/>
    <path d="M91.366,81.839C90.553,82.624 95.344,85.337 97.784,85.355C104.242,85.403 124.39,83.221 130.117,82.126C131.396,81.882 132.57,79.798 132.147,78.789C131.724,77.78 129.347,75.961 127.579,76.073C122.665,76.383 108.695,79.688 102.66,80.649C98.921,81.244 92.178,81.055 91.366,81.839Z"/>
    <path d="M104.804,97.293C106.846,99.371 108.728,93.294 108.219,92.42C107.229,90.719 109.148,93.524 108.219,92.42C107.142,91.14 105.725,90.093 104.191,89.427C102.592,88.733 100.52,88.22 98.625,88.255C96.704,88.29 94.175,89.038 92.667,89.641C91.488,90.111 90.384,90.927 89.577,91.868C88.77,92.808 87.955,94.012 87.825,95.285C87.659,96.916 87.816,100.02 88.58,101.655C89.307,103.21 90.949,104.438 92.41,105.095C93.871,105.752 95.699,105.755 97.345,105.596C99.218,105.415 101.708,104.971 103.649,104.008C107.738,101.982 118.559,95.172 121.878,93.439C122.38,93.178 123.215,93.456 123.567,93.612C123.834,93.731 123.937,94.093 123.991,94.38C124.072,94.815 124.417,95.726 124.056,96.223C122.296,98.645 115.458,106.395 113.43,108.911C112.831,109.654 111.026,111.736 111.886,111.323C113.385,110.603 118.937,106.878 122.422,104.594C126.009,102.242 131.392,98.812 133.41,97.213C134.057,96.7 134.296,95.784 134.526,95.002C134.755,94.219 134.951,93.185 134.787,92.517C134.631,91.881 134.044,91.342 133.543,90.994C133.043,90.647 132.383,90.579 131.786,90.434C130.715,90.174 128.664,89.638 127.115,89.433C125.585,89.23 123.615,89.071 122.491,89.202C121.712,89.293 121.083,89.893 120.369,90.219C119.055,90.819 116.448,91.785 114.605,92.803C112.031,94.225 107.398,97.407 104.925,98.75C103.292,99.637 101.342,100.55 99.767,100.861C98.36,101.139 96.509,101.065 95.472,100.619C94.522,100.21 93.759,99.132 93.546,98.184C93.334,97.236 93.619,95.736 94.196,94.931C94.773,94.126 96.047,93.606 97.009,93.355C97.965,93.106 99.099,93.176 99.972,93.425C100.831,93.67 101.546,94.289 102.244,94.848C103.05,95.493 103.946,96.419 104.804,97.293Z"/>
    <path d="M111.34,105.256C111.485,105.589 106.488,98.797 104.934,97.433C103.399,96.087 106.599,90.648 107.666,91.951C108.734,93.255 110.932,104.32 111.34,105.256Z"/>
  </g>
  <g transform="matrix(-0.863644,0,0,-0.841412,206.525,211.001)">
    <path d="M84.736,146.898C84.921,140.298 85,134.561 84.913,131.048C84.809,126.865 80.128,119.815 80.702,119.222C81.429,118.47 86.275,118.679 88.537,119.956C90.798,121.232 93.914,123.903 94.273,126.878C94.884,131.931 92.149,142.445 92.202,150.274C92.304,165.411 92.432,193.268 91.518,201.002C91.19,203.776 90.849,206.794 89.216,209.061C87.568,211.348 84.1,216.689 81.63,214.725C78.609,212.324 73.492,199.24 71.093,194.653C69.796,192.174 66.056,187.542 67.233,187.201C68.41,186.86 75.615,192.07 78.154,192.608C79.731,192.942 82.294,192.033 82.47,190.431C83.16,184.145 84.033,167.724 84.537,153.216C80.117,154.962 67.786,158.447 62.284,157.787C57.43,157.205 50.621,150.347 50.64,148.873C50.658,147.4 58.524,149.562 62.394,148.946C62.949,148.857 63.551,148.729 64.189,148.572C62.917,147.123 64.908,140.269 64.008,136.518C62.977,132.223 58.901,125.722 59.548,125.225C60.229,124.701 73.968,127.907 75.102,132.544C75.866,135.665 73.289,142.531 71.403,146.342C74.476,145.327 77.418,144.399 79.305,144.31C81.206,144.221 83.424,145.6 84.736,146.898ZM150.075,165.409C148.574,161.502 147.056,158.003 147.345,157.204C147.875,155.742 159.271,157.616 161.356,162.103C161.552,162.526 161.746,163.004 161.937,163.531C163.972,163.223 165.741,162.97 167.111,162.798C170.173,162.413 174.242,161.655 176.37,162.798C178.499,163.941 179.658,167.701 179.88,169.655C180.082,171.419 179.425,174.068 177.707,174.52C175.565,175.082 170.605,173.37 167.026,173.032C166.148,172.949 165.211,172.848 164.233,172.743C166.059,182.454 167.283,195.038 167.522,200.624C167.683,204.366 165.125,208.993 163.456,211.1C162.145,212.755 159.356,214.285 157.506,213.268C154.944,211.86 151.342,206.08 148.081,202.651C145.004,199.416 137.626,193.788 135.749,191.156C133.497,193.279 130.466,195.421 127.807,196.806C124.727,198.41 111.187,201.528 109.292,199.732C108.258,198.751 121.865,190.389 123.096,186.2C123.776,183.884 119.342,179.881 121.334,179.176C123.327,178.471 133.114,180.375 135.051,181.97C136.645,183.282 139.543,184.719 139.026,186.718C138.783,187.659 138.007,188.797 136.911,189.986C140.828,191.029 150.8,196.106 153.169,193.865C156.045,191.143 153.585,179.763 152.615,173.653C152.537,173.163 152.43,172.646 152.299,172.109L152.226,172.114C145.339,172.533 131.562,174.589 125.704,175.551C122.763,176.034 119.725,177.383 117.074,177.885C114.68,178.338 112.054,179.478 109.796,178.561C106.792,177.341 98.483,171.882 99.05,170.563C99.616,169.244 108.488,170.939 113.194,170.648C118.297,170.332 124.194,169.466 129.666,168.669C134.414,167.978 142.426,166.651 150.075,165.409ZM55.874,174.475C54.796,174.545 53.809,174.559 52.959,174.503C48.879,174.232 43.602,167.818 43.614,166.557C43.626,165.295 49.912,167.31 53.031,166.935C57.997,166.337 69.246,162.912 73.411,162.974C75.52,163.005 77.378,166.203 78.024,167.304C78.427,167.992 77.85,169.014 77.288,169.58C76.586,170.285 69.744,172.277 63.061,173.511C62.373,180.496 61.169,191.617 59.85,195.026C59.07,197.039 56.475,198.241 54.615,198.84C51.944,199.699 48.703,197.482 48.14,195.659C47.76,194.427 47.348,193.132 47.476,191.849C47.819,188.401 52.399,179.798 55.874,174.475ZM112.774,129.889C108.748,129.432 100.849,123.227 100.872,121.968C100.896,120.686 110.528,122.267 113.131,122.217C120.774,122.067 133.462,118.23 136.686,117.165C139.078,116.375 142.774,119.89 143.029,121.273C143.375,123.157 141.262,124.988 140.031,124.905C137.237,124.716 126.739,128.48 118.362,129.62C118.541,130.858 118.164,132.99 117.741,134.777C118.072,135.299 118.438,135.741 118.842,135.92C121.332,137.026 126.672,139.076 130.763,138.893C134.972,138.705 140.113,135.466 144.096,134.79C147.568,134.201 152.054,133.796 154.661,134.84C157.145,135.835 158.948,139.046 159.74,141.058C160.455,142.876 160.326,145.183 159.413,146.911C158.188,149.23 152.705,151.664 148.158,154.243C139.61,159.092 113.761,165.924 115.989,163.502C116.681,162.75 143.098,150.112 144.672,141.973C145.012,140.213 139.532,140.201 137.228,141.16C134.376,142.345 129.906,147.931 127.565,149.088C126.222,149.752 124.179,149.218 123.18,148.102C121.834,146.596 120.826,141.101 119.487,140.055C118.445,139.241 116.495,142.006 115.551,142.084C114.668,144.628 113.614,147.277 112.503,149.333C110.513,153.016 106.932,157.616 104.86,159.296C103.618,160.302 101.362,159.956 100.068,159.412C99.018,158.971 97.812,155.807 98.504,153.765C100.174,148.843 109.303,134.281 112.565,130.124C112.628,130.044 112.698,129.965 112.774,129.889Z"/>
  </g>
</svg>
