<?xml version="1.0" encoding="UTF-8" standalone="no"?>
<!DOCTYPE svg PUBLIC "-//W3C//DTD SVG 1.1//EN" "http://www.w3.org/Graphics/SVG/1.1/DTD/svg11.dtd">
<svg width="100%" height="100%" viewBox="0 0 220 250" version="1.1" 
  xmlns="http://www.w3.org/2000/svg" 
  xmlns:xlink="http://www.w3.org/1999/xlink" xml:space="preserve" 
  xmlns:serif="http://www.serif.com/" style="fill-rule:evenodd;clip-rule:evenodd;stroke-linejoin:round;stroke-miterlimit:2;">
  <g transform="matrix(-0.818976,1.85041e-18,2.05173e-18,-0.891328,198.544,228.936)">
    <filter id="drop-shadow">
      <feGaussianBlur in="SourceAlpha" stdDeviation="7" />
    </filter>
    <defs>
      <linearGradient id="GradientOverlay">
        <stop offset="0%" stop-color="#fff" />
        <stop offset="100%" stop-color="#000" />
      </linearGradient>
    </defs>
    <path d="M30,20L30,20L100,0L170,20L170,20L200,230L0,230L30,20Z" filter="url(#drop-shadow)" opacity="0.6"/>
    <path d="M40,30L40,30L110,10L180,30L180,30L210,240L10,240L40,30Z" style="fill:rgb(255,225,167);"/>
    <path d="M40,30L40,30L110,10L180,30L180,30L210,240L10,240L40,30Z" style="fill:url(#GradientOverlay);" opacity="0.1"/>
  </g>
  <g transform="matrix(-0.9639,0,0,-0.9639,212.421,236.308)">
    <path d="M97.765,124.334C97.641,125.329 100.53,127.594 101.135,129.584C101.966,132.321 102.627,136.997 102.756,140.759C103.107,151.042 103.051,179.119 103.242,191.278C103.359,198.76 103.292,208.507 103.899,213.717C104.258,216.799 105.699,223.147 106.881,222.536C108.062,221.924 109.957,214.307 110.988,210.049C112.018,205.79 112.776,201.383 113.065,196.982C113.412,191.717 113.065,184.631 113.065,178.455C113.065,170.276 112.913,155.884 113.065,147.911C113.175,142.139 114.258,134.251 113.978,130.617C113.844,128.889 112.881,126.98 111.381,126.112C109.365,124.945 104.152,123.913 101.882,123.617C100.501,123.437 97.89,123.34 97.765,124.334Z"/>
    <path d="M80.976,143.655C80.607,144.779 85.424,149.27 88.254,150.273C91.083,151.275 94.747,150.131 97.954,149.672C104.623,148.718 122.484,145.523 128.267,144.545C129.729,144.298 131.826,144.54 132.652,143.807C133.478,143.074 133.386,141.131 133.223,140.148C133.074,139.254 132.441,138.391 131.67,137.913C130.651,137.281 128.622,136.55 127.11,136.357C125.614,136.166 124.082,136.467 122.602,136.757C116.494,137.952 97.404,142.38 90.467,143.529C87.345,144.047 81.345,142.531 80.976,143.655Z"/>
    <path d="M78.74,157.145C78.217,158.119 83.102,162.966 84.78,164.195C85.866,164.991 87.461,164.559 88.808,164.52C91.257,164.448 95.97,164.41 99.476,163.763C105.63,162.627 120.383,158.454 125.729,157.704C127.719,157.425 130.192,158.393 131.553,159.265C132.775,160.047 133.346,161.591 133.896,162.934C134.512,164.438 135.423,166.454 135.247,168.285C135.02,170.661 133.432,174.463 132.529,177.189C131.698,179.697 130.354,182.993 129.827,184.64C129.576,185.426 129.468,186.253 129.365,187.071C129.262,187.897 128.489,189.15 129.204,189.597C130.24,190.245 134.087,191.389 135.581,190.958C137.075,190.526 137.5,188.434 138.17,187.01C139.282,184.643 141.049,180.23 142.257,176.754C143.473,173.254 145.072,168.847 145.467,166.013C145.757,163.927 145.462,161.606 144.625,159.75C143.788,157.895 142.008,156.201 140.443,154.882C138.906,153.585 137.026,152.589 135.235,151.833C133.475,151.09 131.563,150.374 129.698,150.348C127.834,150.321 125.941,151.273 124.05,151.676C117.978,152.97 99.293,156.997 93.271,158.109C91.515,158.434 89.701,158.472 87.92,158.354C85.498,158.193 79.264,156.171 78.74,157.145Z"/>
    <path d="M86.979,168.71C86.828,169.879 92.709,175.443 96.679,175.654C103.15,175.999 120.681,172.042 125.801,170.777C126.82,170.525 127.554,169.104 127.402,168.066C127.24,166.962 126.284,164.727 124.833,164.155C123.245,163.529 120.164,163.933 117.874,164.31C113.333,165.057 102.736,167.903 97.587,168.637C94.086,169.135 87.13,167.54 86.979,168.71Z"/>
    <path d="M88.764,179.365C87.814,180.125 92.146,182.842 93.876,183.793C95.458,184.663 97.543,184.842 99.14,185.073C100.566,185.279 102.026,185.316 103.46,185.181C106.109,184.93 111.444,184.242 115.035,183.569C118.397,182.94 123.095,182.188 125.006,181.147C126.207,180.494 126.864,178.225 126.498,177.327C126.132,176.429 124.146,175.775 122.81,175.758C120.933,175.734 117.779,176.804 115.239,177.184C111.366,177.764 103.989,178.871 99.576,179.235C95.984,179.531 89.714,178.605 88.764,179.365Z"/>
    <path d="M67.356,157.073C66.492,158.178 72.423,166.147 73.994,171.065C75.931,177.13 77.948,189.378 78.978,193.463C79.176,194.246 79.41,195.312 80.176,195.569C81.222,195.92 84.415,196.118 85.253,195.569C86.092,195.02 85.239,193.371 85.206,192.272C85.082,188.109 85.511,175.228 84.507,170.588C83.933,167.937 81.311,166.114 79.18,164.435C76.322,162.182 68.221,155.968 67.356,157.073Z"/>
    <g transform="matrix(1,0,0,1,-3.5769,0)">
      <path d="M60.163,193.676C58.755,194.571 63.88,198.582 65.264,199.988C66.163,200.9 67.254,201.698 68.467,202.11C69.993,202.628 72.517,203.215 74.419,203.097C76.321,202.978 78.042,201.905 79.879,201.397C82.145,200.77 85.271,199.891 88.013,199.337C91.542,198.624 96.691,197.705 101.053,197.117C105.411,196.53 109.879,196.059 114.182,195.813C118.406,195.571 122.71,195.387 126.872,195.642C130.996,195.895 135.085,196.603 139.151,197.342C143.247,198.087 148.346,199.38 151.447,200.11C153.561,200.608 155.969,201.796 157.76,201.723C159.387,201.655 161.411,200.55 162.193,199.667C162.911,198.857 162.839,197.441 162.451,196.43C162.049,195.379 160.997,193.952 159.776,193.359C157.365,192.191 151.641,190.352 147.985,189.419C144.665,188.572 141.251,188.075 137.839,187.763C134.368,187.444 130.473,187.531 127.158,187.509C124.088,187.49 120.135,187.549 117.949,187.633C116.64,187.683 115.34,187.868 114.038,188.014C111.093,188.345 103.352,189.221 100.276,189.617C98.703,189.82 97.139,190.097 95.581,190.391C91.153,191.224 79.614,194.069 73.711,194.616C69.203,195.034 61.571,192.781 60.163,193.676Z"/>
    </g>
  </g>
  <g transform="matrix(-1.01882,0,0,-1.01882,219.239,251.012)">
    <path d="M108.456,48.326C107.95,48.51 110.436,52.391 109.882,53.11C108.463,54.95 103.837,57.876 100.511,59.787C96.773,61.936 87.009,65.104 87.453,66.002C87.897,66.9 98.676,65.924 103.176,65.176C107.075,64.528 111.169,62.987 114.455,61.513C117.465,60.162 122.192,58.032 122.89,56.33C123.588,54.629 120.562,52.368 118.644,51.304C116.238,49.97 109.925,47.791 108.456,48.326Z"/>
    <path d="M105.212,61.351C103.687,61.11 108.402,67.349 109.047,70.412C109.686,73.452 109.363,77.278 109.079,79.731C108.863,81.61 109.203,84.777 107.346,85.133C105.425,85.501 97.081,80.326 97.548,81.943C98.015,83.56 107.079,93.588 110.148,94.836C112.599,95.833 115.09,91.932 115.966,89.435C117.307,85.605 119.991,76.541 118.199,71.861C116.407,67.18 106.737,61.593 105.212,61.351Z"/>
    <path d="M76.869,73.857C75.554,74.653 83.664,80.854 87.991,79.495C96.209,76.913 117.413,75.9 122.302,75.689C124.88,75.577 132.009,75.244 134.447,75.585C136.462,75.867 138.841,76.264 139.783,75.706C140.725,75.149 140.684,73.244 140.1,72.242C139.476,71.17 137.714,69.314 136.037,69.274C128.143,69.083 96.4,72.834 89.667,73.56C85.255,74.036 77.486,73.484 76.869,73.857Z"/>
    <path d="M89.944,76.671C89.401,77.402 90.652,80.764 89.555,82.285C87.647,84.928 81.986,89.486 78.499,92.529C75.306,95.316 68.062,99.907 68.63,100.544C69.198,101.182 77.825,98.561 81.907,96.353C86.773,93.721 96.009,87.826 97.827,84.751C99.266,82.316 94.13,79.248 92.816,77.901C92.089,77.156 90.488,75.941 89.944,76.671Z"/>
    <path d="M120.48,82.403C120.808,83.755 130.774,88.621 133.957,91.141C136.179,92.901 137.606,96.044 139.577,97.525C141.359,98.865 144.266,100.352 145.782,100.027C147.297,99.702 148.734,97.343 148.672,95.575C148.603,93.621 147.5,89.9 145.371,88.3C142.591,86.21 136.138,84.017 131.989,83.034C128.25,82.148 120.152,81.052 120.48,82.403Z"/>
    <path d="M82.784,98.122C81.398,98.295 86.299,102.61 87.172,105.264C88.267,108.593 88.41,114.938 89.355,118.1C90.03,120.354 91.923,123.033 92.846,124.234C93.314,124.843 94.419,125.909 94.89,125.301C95.637,124.338 97.26,120.874 97.328,118.452C97.427,114.94 97.909,107.617 95.484,104.229C93.06,100.841 84.169,97.95 82.784,98.122Z"/>
    <path d="M93.295,99.596C92.863,100.347 96.961,103.85 99.495,104.027C104.576,104.383 119.57,100.807 123.777,101.731C126.348,102.295 124.978,106.948 124.738,109.569C124.467,112.527 122.739,116.854 122.153,119.475C121.724,121.394 120.926,124.177 121.223,125.3C121.466,126.221 122.996,126.393 123.93,126.211C124.904,126.022 126.312,125.16 127.065,124.164C128.094,122.802 129.254,120.154 130.106,118.039C131.461,114.673 134.933,107.176 135.195,103.97C135.365,101.894 133.384,99.999 131.677,98.803C129.748,97.451 126.477,95.789 123.618,95.858C118.687,95.977 107.145,98.897 102.092,99.52C99.182,99.879 93.728,98.845 93.295,99.596Z"/>
    <path d="M96.215,110.25C97.547,111.229 99.342,114.213 101.616,114.508C104.84,114.927 112.668,113.189 115.561,112.761C116.718,112.59 118.414,112.882 118.974,111.941C119.533,110.999 120.448,107.607 118.917,107.113C116.707,106.401 109.931,107.417 105.715,107.67C101.679,107.913 95.207,108.205 93.623,108.635C92.641,108.902 95.395,109.648 96.215,110.25Z"/>
    <path d="M94.832,121.233C96.01,122.36 97.585,124.601 99.537,124.749C102.953,125.007 111.369,123.036 115.331,122.784C117.987,122.614 121.744,123.901 123.304,123.231C124.736,122.617 126.04,119.537 124.688,118.766C123.336,117.994 118.357,118.533 115.192,118.604C111.612,118.684 106.996,119.349 103.209,119.246C99.606,119.148 93.866,117.654 92.47,117.985C91.167,118.294 93.865,120.307 94.832,121.233Z"/>
  </g>
</svg>
