<?xml version="1.0" encoding="UTF-8" standalone="no"?>
<!DOCTYPE svg PUBLIC "-//W3C//DTD SVG 1.1//EN" "http://www.w3.org/Graphics/SVG/1.1/DTD/svg11.dtd">
<svg width="100%" height="100%" viewBox="0 0 220 250" version="1.1" 
  xmlns="http://www.w3.org/2000/svg" 
  xmlns:xlink="http://www.w3.org/1999/xlink" xml:space="preserve" 
  xmlns:serif="http://www.serif.com/" style="fill-rule:evenodd;clip-rule:evenodd;stroke-linejoin:round;stroke-miterlimit:2;">
  <g transform="matrix(0.818976,0,0,0.854422,18.5511,26.9589)">
    <filter id="drop-shadow">
      <feGaussianBlur in="SourceAlpha" stdDeviation="7" />
    </filter>
    <defs>
      <linearGradient id="GradientOverlay">
        <stop offset="0%" stop-color="#000" />
        <stop offset="100%" stop-color="#fff" />
      </linearGradient>
    </defs>
    <path d="M50,40L50,40L120,20L190,40L190,40L220,250L20,250L50,40Z" filter="url(#drop-shadow)" opacity="0.6"/>
    <path d="M40,30L40,30L110,10L180,30L180,30L210,240L10,240L40,30Z" style="fill:rgb(255,225,167);"/>
    <path d="M40,30L40,30L110,10L180,30L180,30L210,240L10,240L40,30Z" style="fill:url(#GradientOverlay);" opacity="0.1"/>
  </g>
  <g transform="matrix(1.91144,0,0,1.91144,-96.3957,-106.833)">
    <path d="M103.487,103.807C103.165,103.911 103.198,104.315 103.232,105.12C103.327,107.324 103.531,111.724 103.146,113.924C102.684,116.559 100.918,119.207 100.395,121.461C99.943,123.408 99.677,125.664 100.008,127.445C100.329,129.17 101.578,131.191 102.382,132.143C102.952,132.818 103.987,133.413 104.832,133.154C106.382,132.679 110.136,130.899 111.68,129.292C113.127,127.786 114.734,124.034 114.096,123.511C113.457,122.988 109.311,125.538 107.849,126.154C107.008,126.509 105.696,127.823 105.321,127.208C104.947,126.593 105.269,123.993 105.602,122.465C105.936,120.936 107.104,119.606 107.32,118.038C107.558,116.313 107.541,114.025 107.027,112.117C106.388,109.745 104.595,103.449 103.487,103.807Z"/>
    <path d="M113.469,122.682C113.908,122.484 114.431,122.365 114.898,122.479C115.479,122.62 116.526,122.895 116.952,123.529C117.378,124.163 117.598,125.553 117.454,126.281C117.318,126.971 116.689,127.52 116.092,127.894C114.521,128.878 109.837,130.756 108.027,132.187C106.688,133.245 105.538,134.798 105.234,136.477C104.905,138.3 105.415,141.364 106.051,143.122C106.61,144.667 108.146,146.007 109.052,147.03C109.782,147.853 110.853,148.528 111.487,149.258C112.044,149.899 112.749,150.563 112.856,151.405C112.992,152.464 112.83,154.844 112.298,155.611C111.792,156.34 110.535,156.178 109.664,156.004C108.496,155.771 106.45,155.276 105.289,154.21C103.894,152.929 102.099,150.502 101.297,148.32C100.494,146.138 100.324,143.529 100.473,141.117C100.621,138.703 101.212,136.036 102.186,133.84C103.16,131.647 104.863,129.538 106.318,127.944C107.639,126.496 109.724,125.152 110.916,124.276C111.724,123.681 112.805,122.982 113.469,122.682Z"/>
  </g>
</svg>
