<?xml version="1.0" encoding="UTF-8" standalone="no"?>
<!DOCTYPE svg PUBLIC "-//W3C//DTD SVG 1.1//EN" "http://www.w3.org/Graphics/SVG/1.1/DTD/svg11.dtd">
<svg width="100%" height="100%" viewBox="0 0 220 250" version="1.1" 
  xmlns="http://www.w3.org/2000/svg" 
  xmlns:xlink="http://www.w3.org/1999/xlink" xml:space="preserve" 
  xmlns:serif="http://www.serif.com/" style="fill-rule:evenodd;clip-rule:evenodd;stroke-linejoin:round;stroke-miterlimit:2;">
  <g transform="matrix(-0.956522,0,0,-0.956522,214.722,241.21)">
    <filter id="drop-shadow">
      <feGaussianBlur in="SourceAlpha" stdDeviation="7" />
    </filter>
    <defs>
      <linearGradient id="GradientOverlay">
        <stop offset="0%" stop-color="#fff" />
        <stop offset="100%" stop-color="#000" />
      </linearGradient>
    </defs>
    <path d="M30,20L30,20L100,0L170,20L170,20L200,230L0,230L30,20Z" filter="url(#drop-shadow)" opacity="0.6"/>
    <path d="M40,30L40,30L110,10L180,30L180,30L210,240L10,240L40,30Z" style="fill:rgb(255,225,167);"/>
    <path d="M40,30L40,30L110,10L180,30L180,30L210,240L10,240L40,30Z" style="fill:url(#GradientOverlay);" opacity="0.1"/>
  </g>
  <g transform="matrix(-1,0,0,-1,219.01,243.289)">
    <path d="M96.347,60.116C90.805,60.784 82.59,62.305 77.961,60.906C73.498,59.556 67.291,51.713 67.933,51.151C68.353,50.784 83.002,53.282 88.015,53.401C91.385,53.481 94.766,52.782 98.009,51.867C104.276,50.099 119.449,43.688 125.614,42.793C128.945,42.31 133.322,45.209 135.005,46.499C136.088,47.33 136.17,49.464 135.71,50.535C135.249,51.605 133.595,52.548 132.242,52.922C128.133,54.057 116.89,56.166 111.057,57.348C110.718,57.417 110.38,57.487 110.041,57.558C110.763,60.442 111.08,65.174 111.155,69.826C118.72,68.703 125.743,67.698 129.106,67.399C130.361,67.287 131.779,68.407 132.324,69.378C132.87,70.35 133.15,72.203 132.379,73.229C131.572,74.305 129.306,75.538 127.481,75.832C124.226,76.356 117.929,77.332 111.04,78.285C110.833,83.213 110.724,89.819 109.266,93.662C118.338,92.672 129.795,90.443 136.182,90.593C140.28,90.69 145.308,93.423 147.798,94.636C149.187,95.312 150.736,96.573 151.121,97.866C151.507,99.16 151.348,101.467 150.111,102.398C148.757,103.417 145.42,104.131 142.994,103.982C135.473,103.521 115.891,98.279 104.981,99.629C88.608,101.657 79.457,104.855 77.043,104.795C75.22,104.749 73.152,105.429 71.578,104.507C69.055,103.029 61.451,97.16 61.905,95.924C62.36,94.687 70.158,97.284 74.304,97.089C78.842,96.875 86.259,96.136 93.701,95.343C93.615,95.193 93.55,95.036 93.512,94.873C93.009,92.734 92.961,87.538 92.971,83.864C92.974,82.796 93.002,81.623 93.047,80.431C89.818,80.72 87.043,80.882 85.098,80.843C81.104,80.762 76.592,76.044 74.765,74.773C74.306,74.453 73.61,73.398 74.139,73.214C74.881,72.955 77.524,73.172 79.215,73.22C81.119,73.275 83.457,73.786 85.561,73.541C87.421,73.324 90.238,72.931 93.576,72.445C93.932,69.155 95.626,62.023 96.347,60.116ZM140.584,64.945C139.797,66.132 146.815,76.927 152.381,80.204C153.564,80.901 155.739,81.307 156.498,80.163C157.285,78.976 158.162,75.203 157.108,73.081C154.938,68.711 141.372,63.758 140.584,64.945Z"/>
  </g>
  <g transform="matrix(-1,0,0,-1,219.01,243.289)">
    <path d="M84.736,146.898C84.921,140.298 85,134.561 84.913,131.048C84.809,126.865 80.128,119.815 80.702,119.222C81.429,118.47 86.275,118.679 88.537,119.956C90.798,121.232 93.914,123.903 94.273,126.878C94.884,131.931 92.149,142.445 92.202,150.274C92.304,165.411 92.432,193.268 91.518,201.002C91.19,203.776 90.849,206.794 89.216,209.061C87.568,211.348 84.1,216.689 81.63,214.725C78.609,212.324 73.492,199.24 71.093,194.653C69.796,192.174 66.056,187.542 67.233,187.201C68.41,186.86 75.615,192.07 78.154,192.608C79.731,192.942 82.294,192.033 82.47,190.431C83.16,184.145 84.033,167.724 84.537,153.216C80.117,154.962 67.786,158.447 62.284,157.787C57.43,157.205 50.621,150.347 50.64,148.873C50.658,147.4 58.524,149.562 62.394,148.946C62.949,148.857 63.551,148.729 64.189,148.572C62.917,147.123 64.908,140.269 64.008,136.518C62.977,132.223 58.901,125.722 59.548,125.225C60.229,124.701 73.968,127.907 75.102,132.544C75.866,135.665 73.289,142.531 71.403,146.342C74.476,145.327 77.418,144.399 79.305,144.31C81.206,144.221 83.424,145.6 84.736,146.898ZM150.075,165.409C148.574,161.502 147.056,158.003 147.345,157.204C147.875,155.742 159.271,157.616 161.356,162.103C161.552,162.526 161.746,163.004 161.937,163.531C163.972,163.223 165.741,162.97 167.111,162.798C170.173,162.413 174.242,161.655 176.37,162.798C178.499,163.941 179.658,167.701 179.88,169.655C180.082,171.419 179.425,174.068 177.707,174.52C175.565,175.082 170.605,173.37 167.026,173.032C166.148,172.949 165.211,172.848 164.233,172.743C166.059,182.454 167.283,195.038 167.522,200.624C167.683,204.366 165.125,208.993 163.456,211.1C162.145,212.755 159.356,214.285 157.506,213.268C154.944,211.86 151.342,206.08 148.081,202.651C145.004,199.416 137.626,193.788 135.749,191.156C133.497,193.279 130.466,195.421 127.807,196.806C124.727,198.41 111.187,201.528 109.292,199.732C108.258,198.751 121.865,190.389 123.096,186.2C123.776,183.884 119.342,179.881 121.334,179.176C123.327,178.471 133.114,180.375 135.051,181.97C136.645,183.282 139.543,184.719 139.026,186.718C138.783,187.659 138.007,188.797 136.911,189.986C140.828,191.029 150.8,196.106 153.169,193.865C156.045,191.143 153.585,179.763 152.615,173.653C152.537,173.163 152.43,172.646 152.299,172.109L152.226,172.114C145.339,172.533 131.562,174.589 125.704,175.551C122.763,176.034 119.725,177.383 117.074,177.885C114.68,178.338 112.054,179.478 109.796,178.561C106.792,177.341 98.483,171.882 99.05,170.563C99.616,169.244 108.488,170.939 113.194,170.648C118.297,170.332 124.194,169.466 129.666,168.669C134.414,167.978 142.426,166.651 150.075,165.409ZM55.874,174.475C54.796,174.545 53.809,174.559 52.959,174.503C48.879,174.232 43.602,167.818 43.614,166.557C43.626,165.295 49.912,167.31 53.031,166.935C57.997,166.337 69.246,162.912 73.411,162.974C75.52,163.005 77.378,166.203 78.024,167.304C78.427,167.992 77.85,169.014 77.288,169.58C76.586,170.285 69.744,172.277 63.061,173.511C62.373,180.496 61.169,191.617 59.85,195.026C59.07,197.039 56.475,198.241 54.615,198.84C51.944,199.699 48.703,197.482 48.14,195.659C47.76,194.427 47.348,193.132 47.476,191.849C47.819,188.401 52.399,179.798 55.874,174.475ZM112.774,129.889C108.748,129.432 100.849,123.227 100.872,121.968C100.896,120.686 110.528,122.267 113.131,122.217C120.774,122.067 133.462,118.23 136.686,117.165C139.078,116.375 142.774,119.89 143.029,121.273C143.375,123.157 141.262,124.988 140.031,124.905C137.237,124.716 126.739,128.48 118.362,129.62C118.541,130.858 118.164,132.99 117.741,134.777C118.072,135.299 118.438,135.741 118.842,135.92C121.332,137.026 126.672,139.076 130.763,138.893C134.972,138.705 140.113,135.466 144.096,134.79C147.568,134.201 152.054,133.796 154.661,134.84C157.145,135.835 158.948,139.046 159.74,141.058C160.455,142.876 160.326,145.183 159.413,146.911C158.188,149.23 152.705,151.664 148.158,154.243C139.61,159.092 113.761,165.924 115.989,163.502C116.681,162.75 143.098,150.112 144.672,141.973C145.012,140.213 139.532,140.201 137.228,141.16C134.376,142.345 129.906,147.931 127.565,149.088C126.222,149.752 124.179,149.218 123.18,148.102C121.834,146.596 120.826,141.101 119.487,140.055C118.445,139.241 116.495,142.006 115.551,142.084C114.668,144.628 113.614,147.277 112.503,149.333C110.513,153.016 106.932,157.616 104.86,159.296C103.618,160.302 101.362,159.956 100.068,159.412C99.018,158.971 97.812,155.807 98.504,153.765C100.174,148.843 109.303,134.281 112.565,130.124C112.628,130.044 112.698,129.965 112.774,129.889Z"/>
  </g>
</svg>
