<?xml version="1.0" encoding="UTF-8" standalone="no"?>
<!DOCTYPE svg PUBLIC "-//W3C//DTD SVG 1.1//EN" "http://www.w3.org/Graphics/SVG/1.1/DTD/svg11.dtd">
<svg width="100%" height="100%" viewBox="0 0 220 250" version="1.1" 
  xmlns="http://www.w3.org/2000/svg" 
  xmlns:xlink="http://www.w3.org/1999/xlink" xml:space="preserve" 
  xmlns:serif="http://www.serif.com/" style="fill-rule:evenodd;clip-rule:evenodd;stroke-linejoin:round;stroke-miterlimit:2;">
  <g transform="matrix(-0.93913,0,0,-0.93913,213.304,239.678)">
    <filter id="drop-shadow">
      <feGaussianBlur in="SourceAlpha" stdDeviation="7" />
    </filter>
    <defs>
      <linearGradient id="GradientOverlay">
        <stop offset="0%" stop-color="#fff" />
        <stop offset="100%" stop-color="#000" />
      </linearGradient>
    </defs>
    <path d="M30,20L30,20L100,0L170,20L170,20L200,230L0,230L30,20Z" filter="url(#drop-shadow)" opacity="0.6"/>
    <path d="M40,30L40,30L110,10L180,30L180,30L210,240L10,240L40,30Z" style="fill:rgb(255,225,167);"/>
    <path d="M40,30L40,30L110,10L180,30L180,30L210,240L10,240L40,30Z" style="fill:url(#GradientOverlay);" opacity="0.1"/>
  </g>
  <g transform="matrix(-1,0,0,-1,217.753,244.574)">
    <path d="M97.765,124.334C97.641,125.329 100.53,127.594 101.135,129.584C101.966,132.321 102.627,136.997 102.756,140.759C103.107,151.042 103.051,179.119 103.242,191.278C103.359,198.76 103.292,208.507 103.899,213.717C104.258,216.799 105.699,223.147 106.881,222.536C108.062,221.924 109.957,214.307 110.988,210.049C112.018,205.79 112.776,201.383 113.065,196.982C113.412,191.717 113.065,184.631 113.065,178.455C113.065,170.276 112.913,155.884 113.065,147.911C113.175,142.139 114.258,134.251 113.978,130.617C113.844,128.889 112.881,126.98 111.381,126.112C109.365,124.945 104.152,123.913 101.882,123.617C100.501,123.437 97.89,123.34 97.765,124.334Z"/>
    <path d="M80.976,143.655C80.607,144.779 85.424,149.27 88.254,150.273C91.083,151.275 94.747,150.131 97.954,149.672C104.623,148.718 122.484,145.523 128.267,144.545C129.729,144.298 131.826,144.54 132.652,143.807C133.478,143.074 133.386,141.131 133.223,140.148C133.074,139.254 132.441,138.391 131.67,137.913C130.651,137.281 128.622,136.55 127.11,136.357C125.614,136.166 124.082,136.467 122.602,136.757C116.494,137.952 97.404,142.38 90.467,143.529C87.345,144.047 81.345,142.531 80.976,143.655Z"/>
    <path d="M78.74,157.145C78.217,158.119 83.102,162.966 84.78,164.195C85.866,164.991 87.461,164.559 88.808,164.52C91.257,164.448 95.97,164.41 99.476,163.763C105.63,162.627 120.383,158.454 125.729,157.704C127.719,157.425 130.192,158.393 131.553,159.265C132.775,160.047 133.346,161.591 133.896,162.934C134.512,164.438 135.423,166.454 135.247,168.285C135.02,170.661 133.432,174.463 132.529,177.189C131.698,179.697 130.354,182.993 129.827,184.64C129.576,185.426 129.468,186.253 129.365,187.071C129.262,187.897 128.489,189.15 129.204,189.597C130.24,190.245 134.087,191.389 135.581,190.958C137.075,190.526 137.5,188.434 138.17,187.01C139.282,184.643 141.049,180.23 142.257,176.754C143.473,173.254 145.072,168.847 145.467,166.013C145.757,163.927 145.462,161.606 144.625,159.75C143.788,157.895 142.008,156.201 140.443,154.882C138.906,153.585 137.026,152.589 135.235,151.833C133.475,151.09 131.563,150.374 129.698,150.348C127.834,150.321 125.941,151.273 124.05,151.676C117.978,152.97 99.293,156.997 93.271,158.109C91.515,158.434 89.701,158.472 87.92,158.354C85.498,158.193 79.264,156.171 78.74,157.145Z"/>
    <path d="M86.979,168.71C86.828,169.879 92.709,175.443 96.679,175.654C103.15,175.999 120.681,172.042 125.801,170.777C126.82,170.525 127.554,169.104 127.402,168.066C127.24,166.962 126.284,164.727 124.833,164.155C123.245,163.529 120.164,163.933 117.874,164.31C113.333,165.057 102.736,167.903 97.587,168.637C94.086,169.135 87.13,167.54 86.979,168.71Z"/>
    <path d="M88.764,179.365C87.814,180.125 92.146,182.842 93.876,183.793C95.458,184.663 97.543,184.842 99.14,185.073C100.566,185.279 102.026,185.316 103.46,185.181C106.109,184.93 111.444,184.242 115.035,183.569C118.397,182.94 123.095,182.188 125.006,181.147C126.207,180.494 126.864,178.225 126.498,177.327C126.132,176.429 124.146,175.775 122.81,175.758C120.933,175.734 117.779,176.804 115.239,177.184C111.366,177.764 103.989,178.871 99.576,179.235C95.984,179.531 89.714,178.605 88.764,179.365Z"/>
    <path d="M67.356,157.073C66.492,158.178 72.423,166.147 73.994,171.065C75.931,177.13 77.948,189.378 78.978,193.463C79.176,194.246 79.41,195.312 80.176,195.569C81.222,195.92 84.415,196.118 85.253,195.569C86.092,195.02 85.239,193.371 85.206,192.272C85.082,188.109 85.511,175.228 84.507,170.588C83.933,167.937 81.311,166.114 79.18,164.435C76.322,162.182 68.221,155.968 67.356,157.073Z"/>
    <g transform="matrix(1,0,0,1,-3.5769,0)">
      <path d="M60.163,193.676C58.755,194.571 63.88,198.582 65.264,199.988C66.163,200.9 67.254,201.698 68.467,202.11C69.993,202.628 72.517,203.215 74.419,203.097C76.321,202.978 78.042,201.905 79.879,201.397C82.145,200.77 85.271,199.891 88.013,199.337C91.542,198.624 96.691,197.705 101.053,197.117C105.411,196.53 109.879,196.059 114.182,195.813C118.406,195.571 122.71,195.387 126.872,195.642C130.996,195.895 135.085,196.603 139.151,197.342C143.247,198.087 148.346,199.38 151.447,200.11C153.561,200.608 155.969,201.796 157.76,201.723C159.387,201.655 161.411,200.55 162.193,199.667C162.911,198.857 162.839,197.441 162.451,196.43C162.049,195.379 160.997,193.952 159.776,193.359C157.365,192.191 151.641,190.352 147.985,189.419C144.665,188.572 141.251,188.075 137.839,187.763C134.368,187.444 130.473,187.531 127.158,187.509C124.088,187.49 120.135,187.549 117.949,187.633C116.64,187.683 115.34,187.868 114.038,188.014C111.093,188.345 103.352,189.221 100.276,189.617C98.703,189.82 97.139,190.097 95.581,190.391C91.153,191.224 79.614,194.069 73.711,194.616C69.203,195.034 61.571,192.781 60.163,193.676Z"/>
    </g>
  </g>
  <g transform="matrix(-1.14482,0,0,-1.14482,231.991,256.415)">
    <path d="M83.997,43.694C83.997,43.694 88.038,49.296 90.014,50.405C91.71,51.358 93.954,50.787 95.85,50.352C99.386,49.541 111.228,45.538 111.228,45.538L113.15,45.545C113.15,45.545 112.483,56.237 112.833,59.842C113.083,62.403 114.083,65.151 115.253,67.173C116.363,69.09 117.953,70.831 119.853,71.97C121.956,73.231 125.075,74.317 127.871,74.736C130.791,75.173 134.428,75.234 137.371,74.595C140.289,73.961 143.635,72.008 145.531,70.902C146.787,70.17 148.255,69.218 148.749,67.959C149.244,66.7 149.178,64.73 148.498,63.349C147.73,61.789 145.419,60.327 144.14,58.601C142.423,56.284 139.244,50.055 138.198,49.45C137.153,48.844 137.799,53.125 137.865,54.966C137.943,57.154 138.49,60.777 138.667,62.581C138.772,63.649 139.769,65.124 138.927,65.79C137.826,66.661 134.302,67.449 132.061,67.809C129.897,68.156 127.335,68.388 125.486,67.949C123.764,67.539 122.204,66.289 120.963,65.17C119.75,64.077 118.498,62.807 118.038,61.24C117.551,59.577 117.699,57.182 118.038,55.196C118.432,52.899 119.709,49.725 120.397,47.456C120.991,45.5 122.643,43.252 122.166,41.584C121.689,39.917 119.214,38.099 117.533,37.454C115.852,36.809 113.867,37.369 112.08,37.717C109.388,38.24 104.994,39.826 101.382,40.595C96.701,41.591 83.997,43.694 83.997,43.694Z"/>
    <path d="M124.534,48.368C125.971,49.075 131.966,49.976 134.168,49.536C135.876,49.194 137.659,47.126 137.746,45.726C137.832,44.326 135.62,41.881 134.685,41.136C134.019,40.605 132.909,40.903 132.134,41.256C130.611,41.948 126.812,44.106 125.546,45.292C124.758,46.029 123.566,47.891 124.534,48.368Z"/>
    <path d="M123.889,58.186C124.489,59.554 131.02,62.82 132.999,63.319C134.129,63.604 135.593,62.332 135.763,61.18C135.94,59.984 135.12,57.153 134.059,56.142C132.997,55.131 130.956,54.798 129.395,55.112C127.7,55.452 123.288,56.818 123.889,58.186Z"/>
    <path d="M123.362,87.431C124.051,88.598 130.967,88.739 133.365,88.156C135.336,87.677 137.43,85.358 137.748,83.934C138.066,82.51 136.691,80.075 135.272,79.611C133.853,79.147 130.97,80.01 129.234,81.15C127.249,82.454 122.674,86.263 123.362,87.431Z"/>
    <path d="M124.196,96.847C124.493,98.276 131.403,101.642 133.624,102.069C135.168,102.366 137.061,100.661 137.52,99.41C137.979,98.159 137.324,95.548 136.377,94.563C135.431,93.577 133.368,93.211 131.842,93.497C129.811,93.878 123.899,95.418 124.196,96.847Z"/>
    <g transform="matrix(1,0,0,1,-1.58146,0)">
      <path d="M98.668,52.757C98.096,53.784 101.593,59.495 102.318,61.223C102.58,61.847 103.014,62.452 103.018,63.128C103.054,69.298 102.794,92.046 102.535,98.242C102.503,99.017 102.221,100.146 101.463,100.307C100.471,100.517 96.6,98.016 96.583,99.504C96.566,100.992 100.016,106.933 101.361,109.235C102.243,110.744 103.821,112.554 104.656,113.314C105.094,113.713 105.801,113.959 106.37,113.791C106.946,113.621 107.687,112.93 108.113,112.293C108.842,111.203 110.228,108.879 110.742,107.25C111.218,105.741 111.2,104.107 111.197,102.524C111.193,100.816 110.758,98.851 110.722,97.005C110.601,90.811 110.293,71.242 110.473,65.359C110.512,64.064 111.637,62.712 111.799,61.706C111.926,60.914 111.98,59.92 111.44,59.327C110.432,58.219 107.858,56.146 105.75,55.062C103.621,53.967 99.24,51.731 98.668,52.757Z"/>
    </g>
    <g transform="matrix(1,0,0,1,-1.58146,0)">
      <path d="M86.109,55.021C84.928,55.161 87.31,57.581 86.624,58.553C83.865,62.464 71.613,75.181 69.555,78.484C68.722,79.82 72.727,78.611 74.279,78.366C75.83,78.122 77.466,77.785 78.862,77.018C80.987,75.851 84.454,73.448 87.027,71.366C89.884,69.054 94.394,64.974 96.003,63.144C96.628,62.434 96.888,61.312 96.68,60.389C96.471,59.463 95.761,58.099 94.749,57.585C92.987,56.69 87.464,54.859 86.109,55.021Z"/>
    </g>
    <g transform="matrix(1,0,0,1,-1.58146,0)">
      <path d="M83.266,69.42C82.682,70.408 88.233,73.86 89.354,76.663C90.474,79.466 90.313,83.057 89.989,86.24C89.638,89.687 88.722,94.179 87.249,97.343C85.848,100.353 83.4,104.521 81.154,105.221C78.908,105.921 74.768,101.365 73.773,101.544C72.777,101.724 74.587,104.755 75.181,106.297C75.775,107.841 76.576,109.639 77.339,110.806C77.972,111.773 78.897,112.974 79.755,113.294C80.613,113.614 81.675,113.179 82.487,112.725C83.82,111.981 86.251,110.416 87.748,108.829C89.295,107.189 90.692,105.025 91.765,102.889C93.02,100.393 94.607,97.014 95.274,93.852C96.107,89.905 96.574,82.684 96.762,79.208C96.874,77.137 97.052,74.408 96.401,72.996C95.815,71.725 94.21,71.107 92.858,70.739C90.669,70.143 83.85,68.433 83.266,69.42Z"/>
    </g>
    <g transform="matrix(1,0,0,1,-1.58146,0)">
      <path d="M62.795,89.099C62.222,90.271 68.675,95.335 70.267,96.639C70.808,97.082 71.67,97.103 72.346,96.925C74.714,96.299 80.43,94.231 84.473,92.888C91.564,90.532 109.558,84.457 114.89,82.791C115.392,82.634 116.068,82.625 116.464,82.892C116.86,83.158 117.239,83.822 117.266,84.387C117.336,85.864 117.013,89.296 116.884,91.75C116.751,94.274 116.325,97.111 116.468,99.528C116.604,101.804 116.949,104.438 117.745,106.25C118.472,107.906 119.842,109.254 121.242,110.4C122.752,111.637 124.804,112.872 126.801,113.667C128.832,114.475 131.172,114.996 133.43,115.251C135.829,115.522 138.659,115.505 141.194,115.293C143.707,115.084 146.653,114.613 148.644,113.981C150.274,113.464 151.96,112.496 153.139,111.506C154.241,110.579 155.114,109.204 155.715,108.039C156.276,106.952 156.673,105.611 156.746,104.517C156.814,103.486 156.706,102.346 156.152,101.473C155.554,100.531 153.984,99.899 153.155,98.866C150.692,95.792 142.923,83.942 141.37,83.03C139.817,82.118 143.116,90.19 143.837,93.394C144.5,96.338 145.466,100.268 145.699,102.254C145.819,103.278 145.675,104.545 145.232,105.311C144.789,106.078 143.85,106.472 143.043,106.851C142.045,107.319 140.563,107.925 139.242,108.122C137.759,108.342 135.833,108.386 134.148,108.174C132.435,107.957 130.511,107.372 128.961,106.825C127.533,106.32 125.95,105.928 124.85,104.888C123.749,103.849 122.973,102.099 122.358,100.586C121.744,99.074 121.378,97.438 121.163,95.812C120.932,94.064 120.909,91.867 120.971,90.1C121.03,88.459 121.334,86.578 121.538,85.207C121.706,84.086 122.238,82.883 122.2,81.871C122.164,80.913 122.011,79.792 121.313,79.135C120.553,78.42 118.943,77.856 117.643,77.584C116.305,77.305 114.668,77.01 113.286,77.457C107.794,79.234 90.36,86.29 84.692,88.248C82.959,88.847 81.096,88.983 79.277,89.209C77.447,89.436 75.569,89.623 73.708,89.61C70.961,89.592 63.369,87.928 62.795,89.099Z"/>
    </g>
  </g>
</svg>
