<?xml version="1.0" encoding="UTF-8" standalone="no"?>
<!DOCTYPE svg PUBLIC "-//W3C//DTD SVG 1.1//EN" "http://www.w3.org/Graphics/SVG/1.1/DTD/svg11.dtd">
<svg width="100%" height="100%" viewBox="0 0 220 250" version="1.1" 
  xmlns="http://www.w3.org/2000/svg" 
  xmlns:xlink="http://www.w3.org/1999/xlink" xml:space="preserve" 
  xmlns:serif="http://www.serif.com/" style="fill-rule:evenodd;clip-rule:evenodd;stroke-linejoin:round;stroke-miterlimit:2;">
  <g transform="matrix(0.891304,0,0,0.891304,11.7429,13.9681)">
    <filter id="drop-shadow">
      <feGaussianBlur in="SourceAlpha" stdDeviation="7" />
    </filter>
    <defs>
      <linearGradient id="GradientOverlay">
        <stop offset="0%" stop-color="#000" />
        <stop offset="100%" stop-color="#fff" />
      </linearGradient>
    </defs>
    <path d="M50,40L50,40L120,20L190,40L190,40L220,250L20,250L50,40Z" filter="url(#drop-shadow)" opacity="0.6"/>
    <path d="M40,30L40,30L110,10L180,30L180,30L210,240L10,240L40,30Z" style="fill:rgb(255,225,167);"/>
    <path d="M40,30L40,30L110,10L180,30L180,30L210,240L10,240L40,30Z" style="fill:url(#GradientOverlay);" opacity="0.1"/>
  </g>
  <g transform="matrix(2.2977,0,0,2.2977,-139.289,-143.351)">
    <path d="M103.763,94.706C102.849,95.192 104.816,97.387 104.508,98.709C104.116,100.396 102.645,102.902 101.41,104.824C99.955,107.086 97.644,110.029 95.78,112.284C94.034,114.397 91.888,116.761 90.229,118.352C88.879,119.646 85.427,121.574 85.824,121.826C86.22,122.079 90.66,121.189 92.608,119.868C95.253,118.074 99.012,114.033 101.693,111.064C104.242,108.241 107.097,104.161 108.693,102.054C109.589,100.87 111.048,99.462 111.266,98.418C111.464,97.467 110.868,96.224 109.997,95.793C108.746,95.174 104.678,94.22 103.763,94.706Z" style="fill:none;"/>
    <path d="M108.394,103.781C107.466,103.746 112.041,106.349 113.709,107.823C115.92,109.777 119.868,113.664 121.663,115.504C122.683,116.551 123.476,118.119 124.477,118.867C125.379,119.542 126.816,120.082 127.665,119.993C128.502,119.906 129.491,119.173 129.569,118.335C129.668,117.28 129.123,114.985 128.257,113.662C127.39,112.339 125.803,111.296 124.369,110.397C122.874,109.459 121.009,108.749 119.281,108.033C116.619,106.93 109.323,103.816 108.394,103.781Z"/>
    <path d="M98.952,115.771C98.269,116.406 100.294,118.123 101.723,118.427C103.286,118.76 106.069,118.454 107.533,118.398C108.53,118.36 109.518,118.204 110.509,118.09C111.594,117.966 113.082,117.944 114.041,117.654C114.862,117.406 116.023,116.917 116.261,116.353C116.639,115.459 115.881,114.393 114.758,113.887C113.941,113.519 112.671,113.753 111.633,113.838C110.144,113.959 107.755,114.321 105.824,114.615C103.71,114.938 99.636,115.136 98.952,115.771Z"/>
    <path d="M99.019,122.465C99.451,122.99 100.493,124.537 101.628,124.729C103.449,125.036 107.537,124.511 109.941,124.309C111.986,124.136 114.756,123.828 116.048,123.514C116.688,123.359 117.507,122.936 117.696,122.427C117.884,121.918 117.624,120.895 117.179,120.461C116.733,120.027 115.772,119.787 115.023,119.822C113.108,119.91 108.356,120.699 105.692,120.992C103.479,121.235 100.152,121.333 99.04,121.578C98.751,121.642 98.832,122.236 99.019,122.465Z"/>
    <path d="M101.152,129.306C101.107,129.866 102.889,132.46 104.139,132.966C105.389,133.472 107.147,132.543 108.653,132.342C110.23,132.132 112.21,131.905 113.599,131.706C114.73,131.544 116.318,131.568 116.982,131.149C117.559,130.786 117.781,129.766 117.585,129.193C117.389,128.62 116.55,127.916 115.806,127.711C115.054,127.504 113.977,127.802 113.076,127.952C111.177,128.268 106.37,129.357 104.411,129.607C101.291,130.005 101.197,128.746 101.152,129.306Z"/>
    <path d="M95.569,139.114C95.828,139.759 98.647,141.888 100.293,142.114C101.94,142.341 103.676,140.808 105.448,140.474C107.261,140.131 109.576,140.051 111.174,140.061C112.473,140.07 113.758,140.333 115.041,140.536C116.645,140.79 119.466,141.599 120.801,141.586C121.64,141.577 122.75,141.109 123.051,140.453C123.351,139.796 123.182,138.397 122.605,137.645C121.981,136.832 120.603,135.666 119.308,135.575C117.644,135.458 114.872,136.62 112.619,136.942C109.966,137.321 105.704,137.635 103.391,137.852C101.844,137.997 100.048,138.032 98.744,138.243C97.661,138.417 95.311,138.469 95.569,139.114Z"/>
    <path d="M105.219,117.521C105.296,118.224 105.992,119.174 106.012,120.06C106.051,121.78 106.412,128.004 106.241,131.744C106.066,135.588 105.597,136.947 105.929,138.45C106.237,139.845 109.981,139.284 109.941,137.855C109.848,134.524 110.118,124.92 110.214,120.938C110.269,118.636 106.384,116.408 105.551,115.838C105.08,115.515 105.157,116.953 105.219,117.521Z"/>
    <path d="M104.868,123.142C103.824,123.412 101.809,124.993 100.972,125.932C100.293,126.693 99.815,127.926 99.846,128.776C99.876,129.627 100.829,130.448 101.157,131.035C101.389,131.45 102.099,131.916 101.817,132.299C101.261,133.053 98.845,134.658 97.821,135.562C97.061,136.234 96.04,137.109 95.676,137.722C95.418,138.157 95.309,138.859 95.642,139.24C96.063,139.722 97.239,140.516 98.204,140.614C99.313,140.727 101.736,140.242 102.297,139.915C102.716,139.671 101.928,138.982 101.569,138.656C101.08,138.213 98.954,138.024 99.366,137.255C99.595,136.828 101.416,134.407 101.881,134.07C102.255,133.8 102.772,133.495 103.178,133.4C105.365,132.889 104.499,133.251 104.96,132.891C105.421,132.53 106.221,131.456 105.945,131.238C105.782,131.109 105.423,130.99 104.994,130.864C104.115,130.605 102.937,130.315 102.529,129.84C101.921,129.132 101.682,127.716 102.3,126.99C103.084,126.069 103.561,125.089 107.234,124.312C107.865,124.179 105.72,122.922 104.868,123.142Z"/>
    <path d="M104.058,94.226C103.493,94.38 104.556,96.208 104.602,97.162C104.647,98.097 104.798,99.143 104.334,99.956C103.197,101.951 100.009,106.241 97.78,109.132C95.615,111.94 92.758,115.219 90.964,117.298C89.692,118.772 86.535,121.293 87.018,121.604C87.501,121.916 91.878,120.557 93.861,119.168C96.448,117.355 100.026,113.568 102.544,110.726C104.918,108.045 107.738,103.995 108.967,102.114C109.485,101.32 110.072,100.37 109.917,99.435C109.755,98.456 108.923,97.066 107.994,96.24C107.018,95.372 104.623,94.073 104.058,94.226Z"/>
  </g>
</svg>
