<?xml version="1.0" encoding="UTF-8" standalone="no"?>
<!DOCTYPE svg PUBLIC "-//W3C//DTD SVG 1.1//EN" "http://www.w3.org/Graphics/SVG/1.1/DTD/svg11.dtd">
<svg width="100%" height="100%" viewBox="0 0 220 250" version="1.1" 
  xmlns="http://www.w3.org/2000/svg" 
  xmlns:xlink="http://www.w3.org/1999/xlink" xml:space="preserve" 
  xmlns:serif="http://www.serif.com/" style="fill-rule:evenodd;clip-rule:evenodd;stroke-linejoin:round;stroke-miterlimit:2;">
  <g transform="matrix(-0.818976,2.858e-18,3.16895e-18,-0.882205,199.519,226.365)">
    <filter id="drop-shadow">
      <feGaussianBlur in="SourceAlpha" stdDeviation="7" />
    </filter>
    <defs>
      <linearGradient id="GradientOverlay">
        <stop offset="0%" stop-color="#fff" />
        <stop offset="100%" stop-color="#000" />
      </linearGradient>
    </defs>
    <path d="M30,20L30,20L100,0L170,20L170,20L200,230L0,230L30,20Z" filter="url(#drop-shadow)" opacity="0.6"/>
    <path d="M40,30L40,30L110,10L180,30L180,30L210,240L10,240L40,30Z" style="fill:rgb(255,225,167);"/>
    <path d="M40,30L40,30L110,10L180,30L180,30L210,240L10,240L40,30Z" style="fill:url(#GradientOverlay);" opacity="0.1"/>
  </g>
  <g transform="matrix(-1.88494,6.57791e-18,6.57791e-18,-1.83122,314.574,335.034)">
    <path d="M101.357,91.45C100.856,92.094 102.81,94.933 102.892,96.491C102.97,97.966 102.299,99.391 101.85,100.799C101.318,102.464 100.277,104.948 99.701,106.484C99.261,107.658 98.307,108.979 98.393,110.011C98.478,111.043 99.345,112.065 100.215,112.676C101.085,113.287 102.45,113.881 103.613,113.676C104.798,113.468 107.37,112.078 107.322,111.423C107.273,110.768 104.169,110.328 103.325,109.744C102.745,109.345 102.221,108.628 102.253,107.924C102.289,107.138 102.913,105.874 103.542,105.023C104.772,103.358 108.858,99.659 109.633,97.935C110.119,96.853 108.952,95.59 108.187,94.683C107.332,93.671 105.644,92.404 104.506,91.865C103.549,91.412 101.602,91.137 101.357,91.45Z"/>
    <path d="M112.129,105.692C112.834,105.323 113.502,104.764 114.293,104.687C115.087,104.609 116.338,104.721 116.892,105.225C117.445,105.728 117.795,106.92 117.615,107.708C117.436,108.497 116.674,109.523 115.817,109.954C114.442,110.646 111.371,110.855 109.366,111.858C107.002,113.042 103.625,115.535 101.63,117.057C100.098,118.224 98.242,119.936 97.393,120.985C96.866,121.637 96.12,123.147 96.54,123.35C98.841,124.465 96.693,125.544 96.303,126.134C95.913,126.724 94.8,127.1 94.2,126.891C93.6,126.682 92.872,125.698 92.704,124.88C92.531,124.031 92.61,122.681 93.16,121.801C94.046,120.382 96.342,118.12 98.022,116.362C99.951,114.342 102.383,111.464 104.734,109.686C106.968,107.996 110.535,106.525 112.129,105.692Z"/>
    <path d="M92.947,124.986C92.426,124.991 93.701,127.268 94.516,127.636C95.332,128.004 96.853,127.719 97.84,127.194C99.547,126.284 102.394,123.765 104.762,122.181C107.159,120.577 109.823,118.573 112.221,117.57C114.395,116.662 117.429,116.347 119.149,116.168C120.279,116.05 122.266,116.011 122.54,116.494C122.815,116.976 121.592,118.399 120.798,119.062C119.971,119.751 118.737,120.335 117.582,120.631C116.014,121.032 111.518,121.032 111.39,121.468C111.263,121.903 114.954,122.995 116.816,123.246C118.679,123.497 120.903,123.663 122.567,122.974C124.231,122.285 126.116,120.354 126.8,119.113C127.377,118.065 127.253,116.504 126.669,115.527C126.086,114.551 124.596,113.651 123.3,113.254C121.834,112.805 119.499,112.71 117.869,112.831C116.375,112.942 114.874,113.33 113.523,113.98C110.201,115.576 101.366,120.577 97.936,122.412C96.286,123.294 93.988,124.975 92.947,124.986Z"/>
    <path d="M105.227,112.642C105.316,113.213 107.627,114.495 107.814,115.859C108.179,118.518 107.404,126.068 107.414,128.599C107.417,129.429 107.564,130.353 107.872,131.047C108.171,131.72 108.87,133.218 109.261,132.764C109.652,132.31 109.943,129.813 110.217,128.324C110.655,125.946 111.725,120.908 111.887,118.498C111.992,116.938 111.96,114.872 111.192,113.861C110.424,112.849 108.272,112.634 107.278,112.43C106.604,112.293 105.137,112.07 105.227,112.642Z"/>
    <path d="M108.782,138.038C108.08,137.456 108.229,135.161 107.529,133.902C106.822,132.63 105.494,130.653 104.54,130.409C103.587,130.166 102.255,131.397 101.807,132.439C101.314,133.584 101.394,135.864 101.584,137.276C101.757,138.559 102.327,139.842 102.946,140.913C103.555,141.966 104.288,144.478 105.299,143.704C105.798,143.321 105.498,145.112 105.075,145.578C104.618,146.082 103.331,146.765 102.553,146.728C101.776,146.69 100.886,146.058 100.411,145.356C99.738,144.361 98.955,142.145 98.519,140.757C98.14,139.548 97.807,138.292 97.797,137.025C97.785,135.633 98.092,133.731 98.45,132.401C98.769,131.219 99.083,129.871 99.948,129.048C100.814,128.225 102.343,127.712 103.642,127.465C104.941,127.217 106.563,126.873 107.743,127.565C109.061,128.337 110.887,130.461 111.553,132.099C112.218,133.735 112.201,136.402 111.739,137.392C111.313,138.306 109.484,138.619 108.782,138.038Z"/>
    <path d="M107.11,132.024C107.446,133.535 107.536,139.016 106.328,141.626C105.12,144.237 101.384,146.364 99.862,147.688C99.041,148.403 97.697,148.847 97.195,149.572C96.722,150.255 96.363,151.369 96.851,152.041C97.638,153.124 99.933,155.348 101.914,156.07C103.895,156.792 106.479,156.668 108.736,156.371C111.427,156.016 116.129,154.576 118.063,153.943C118.904,153.667 120.128,153.145 120.335,152.569C120.543,151.992 119.91,150.969 119.306,150.483C118.586,149.902 117.204,149.159 116.014,149.087C114.385,148.988 111.665,149.457 109.531,149.892C107.253,150.355 103.717,151.718 102.348,151.868C101.855,151.922 101.081,151.226 101.32,150.79C101.645,150.195 103.281,149.091 104.303,148.293C105.832,147.099 109.132,145.182 110.494,143.625C111.608,142.353 112.156,140.615 112.479,138.954C112.809,137.253 112.725,134.966 112.479,133.416C112.268,132.086 111.631,130.594 111.004,129.655C110.456,128.837 109.365,127.393 108.716,127.787C108.067,128.182 106.731,130.322 107.11,132.024Z"/>
  </g>
</svg>
