<?xml version="1.0" encoding="UTF-8" standalone="no"?>
<!DOCTYPE svg PUBLIC "-//W3C//DTD SVG 1.1//EN" "http://www.w3.org/Graphics/SVG/1.1/DTD/svg11.dtd">
<svg width="100%" height="100%" viewBox="0 0 220 250" version="1.1" 
  xmlns="http://www.w3.org/2000/svg" 
  xmlns:xlink="http://www.w3.org/1999/xlink" xml:space="preserve" 
  xmlns:serif="http://www.serif.com/" style="fill-rule:evenodd;clip-rule:evenodd;stroke-linejoin:round;stroke-miterlimit:2;">
  <g transform="matrix(-0.879839,0,0,-0.878261,206.154,226.479)">
    <filter id="drop-shadow">
      <feGaussianBlur in="SourceAlpha" stdDeviation="7" />
    </filter>
    <defs>
      <linearGradient id="GradientOverlay">
        <stop offset="0%" stop-color="#fff" />
        <stop offset="100%" stop-color="#000" />
      </linearGradient>
    </defs>
    <path d="M30,20L30,20L100,0L170,20L170,20L200,230L0,230L30,20Z" filter="url(#drop-shadow)" opacity="0.6"/>
    <path d="M40,30L40,30L110,10L180,30L180,30L210,240L10,240L40,30Z" style="fill:rgb(255,225,167);"/>
    <path d="M40,30L40,30L110,10L180,30L180,30L210,240L10,240L40,30Z" style="fill:url(#GradientOverlay);" opacity="0.1"/>
  </g>
  <g transform="matrix(-2.43836,0,0,-2.81068,374.667,446.323)">
    <path d="M106.117,101.123C106.023,101.599 107.173,102.947 106.773,103.76C106.02,105.286 103.556,108.314 101.601,110.283C99.281,112.62 94.974,116.044 92.852,117.778C91.578,118.819 89.651,120.089 88.868,120.687C88.607,120.888 87.825,121.346 88.154,121.371C88.554,121.401 90.317,121.313 91.271,120.868C93.376,119.887 98.098,117.212 100.785,115.479C103.108,113.982 105.468,112.272 107.395,110.473C109.25,108.74 111.855,106.082 112.345,104.684C112.707,103.648 111.164,102.71 110.329,102.081C109.494,101.451 108.038,101.065 107.336,100.906C106.933,100.814 106.197,100.718 106.117,101.123Z"/>
    <path d="M110.309,109.414C110.434,109.983 114.835,112.534 116.746,114.043C118.499,115.427 120.319,117.027 121.777,118.468C123.11,119.786 124.494,121.848 125.492,122.689C126.11,123.209 127.139,123.604 127.77,123.511C128.401,123.419 129.014,122.727 129.279,122.132C129.545,121.538 129.634,120.622 129.363,119.944C129.067,119.203 128.221,118.347 127.502,117.689C126.473,116.746 124.748,115.247 123.187,114.29C121.27,113.114 118.144,111.444 115.998,110.631C114.184,109.945 110.185,108.846 110.309,109.414Z"/>
    <path d="M108.472,112.704C107.887,112.797 108.956,114.368 108.556,115.035C108.09,115.811 106.642,116.59 105.679,117.359C104.617,118.208 102.111,119.712 102.179,120.129C102.246,120.545 104.796,120.064 106.084,119.857C107.558,119.621 109.874,119.2 111.025,118.711C111.84,118.365 112.819,117.633 112.992,116.927C113.165,116.221 112.701,115.073 112.063,114.477C111.309,113.773 109.056,112.611 108.472,112.704Z"/>
    <path d="M100.79,122.806C100.681,123.169 102.654,124.381 103.802,124.557C105.006,124.742 106.947,124.031 108.019,123.918C108.752,123.84 109.922,123.207 110.231,123.876C110.632,124.745 110.777,127.641 110.422,129.128C110.085,130.537 108.895,131.99 108.096,132.8C107.456,133.45 105.634,133.679 105.631,133.992C105.629,134.304 107.307,135.02 108.083,134.676C109.083,134.233 110.78,132.456 111.634,131.329C112.39,130.33 112.872,129.122 113.207,127.915C113.58,126.574 114,124.379 113.872,123.282C113.778,122.482 112.908,121.727 112.44,121.334C112.074,121.027 111.539,120.863 111.065,120.925C109.735,121.1 106.171,122.068 104.458,122.381C103.248,122.603 100.9,122.444 100.79,122.806Z"/>
    <path d="M106.317,134.957C105.599,135.009 104.923,134.412 104.274,134.043C103.537,133.625 102.592,133.101 101.896,132.448C101.199,131.794 100.35,130.716 100.095,130.123C99.929,129.737 100.169,129.182 100.368,128.89C100.567,128.599 100.941,128.325 101.291,128.372C101.732,128.431 102.735,128.966 103.016,129.244C103.205,129.431 102.859,129.804 102.978,130.041C103.14,130.363 103.564,130.894 103.985,131.172C104.919,131.787 108.193,133.1 108.582,133.731C108.971,134.362 107.035,134.905 106.317,134.957Z"/>
    <path d="M100.969,129.998C100.829,129.733 100.356,128.967 100.667,128.61C100.997,128.232 102.168,127.963 102.949,127.726C103.932,127.428 105.458,126.997 106.566,126.821C107.564,126.663 108.585,126.731 109.594,126.671C110.61,126.611 111.881,126.231 112.665,126.462C113.396,126.677 113.928,127.492 114.302,128.058C114.651,128.585 114.898,129.342 114.911,129.853C114.922,130.314 114.835,131.06 114.379,131.129C113.792,131.218 112.04,130.771 111.385,130.387C110.861,130.08 110.981,129.114 110.446,128.826C109.902,128.534 108.894,128.544 108.121,128.631C107.206,128.734 106.017,129.193 104.958,129.444C103.855,129.705 102.171,130.106 101.506,130.198C101.317,130.225 101.058,130.167 100.969,129.998Z"/>
    <path d="M111.082,129.097C110.324,129.558 109.472,131.348 108.869,132.012C108.473,132.448 107.981,132.801 107.463,133.082C106.651,133.523 104.857,134.29 103.999,134.657C103.448,134.893 102.633,135.107 102.314,135.283C102.172,135.361 102.083,135.547 102.082,135.709C102.081,135.927 102.176,136.315 102.304,136.589C102.463,136.927 102.728,137.403 103.033,137.739C103.381,138.121 103.862,138.613 104.388,138.881C105.015,139.201 105.956,139.608 106.799,139.657C107.948,139.724 110.034,139.359 111.282,139.281C112.284,139.218 113.407,139.209 114.291,139.189C115.056,139.172 116.085,139.303 116.586,139.16C116.936,139.06 117.184,138.671 117.296,138.332C117.409,137.993 117.435,137.477 117.262,137.125C117.088,136.773 116.676,136.385 116.256,136.219C115.72,136.007 114.79,135.827 114.043,135.851C113.181,135.879 112.07,136.206 111.084,136.387C110.028,136.581 108.584,136.98 107.703,137.013C107.052,137.038 106.199,136.709 105.795,136.587C105.604,136.529 105.123,136.405 105.28,136.282C105.531,136.084 106.652,135.744 107.304,135.403C108.197,134.936 109.542,134.145 110.639,133.479C111.864,132.735 114.189,131.649 114.652,130.943C115.036,130.357 114.011,129.55 113.415,129.243C112.82,128.935 111.748,128.691 111.082,129.097Z"/>
  </g>
</svg>
