<?xml version="1.0" encoding="UTF-8" standalone="no"?>
<!DOCTYPE svg PUBLIC "-//W3C//DTD SVG 1.1//EN" "http://www.w3.org/Graphics/SVG/1.1/DTD/svg11.dtd">
<svg width="100%" height="100%" viewBox="0 0 220 250" version="1.1" 
  xmlns="http://www.w3.org/2000/svg" 
  xmlns:xlink="http://www.w3.org/1999/xlink" xml:space="preserve" 
  xmlns:serif="http://www.serif.com/" style="fill-rule:evenodd;clip-rule:evenodd;stroke-linejoin:round;stroke-miterlimit:2;">
  <g transform="matrix(-0.93913,0,0,-0.93913,213.304,239.678)">
    <filter id="drop-shadow">
      <feGaussianBlur in="SourceAlpha" stdDeviation="7" />
    </filter>
    <defs>
      <linearGradient id="GradientOverlay">
        <stop offset="0%" stop-color="#fff" />
        <stop offset="100%" stop-color="#000" />
      </linearGradient>
    </defs>
    <path d="M30,20L30,20L100,0L170,20L170,20L200,230L0,230L30,20Z" filter="url(#drop-shadow)" opacity="0.6"/>
    <path d="M40,30L40,30L110,10L180,30L180,30L210,240L10,240L40,30Z" style="fill:rgb(255,225,167);"/>
    <path d="M40,30L40,30L110,10L180,30L180,30L210,240L10,240L40,30Z" style="fill:url(#GradientOverlay);" opacity="0.1"/>
  </g>
  <g transform="matrix(-1.07528,0,0,-1.07528,228.146,269.885)">
    <path d="M107.788,60.713C107.378,62.27 112.392,66.315 112.491,69.693C112.736,78.104 109.757,103.224 109.261,111.181C109.131,113.264 108.455,115.639 109.517,117.435C110.637,119.329 115.697,119.811 115.98,122.543C116.301,125.656 112.098,131.558 111.447,136.114C110.798,140.66 110.296,146.731 112.075,149.877C113.853,153.023 118.754,153.968 122.12,154.99C125.374,155.978 128.873,156.106 132.272,156.007C136.239,155.892 141.808,154.983 145.92,154.3C149.631,153.683 154.195,152.907 156.948,151.906C159.006,151.158 161.614,150.006 162.436,148.296C163.259,146.586 162.862,143.625 161.884,141.645C160.905,139.665 158.367,138.131 156.568,136.416C154.653,134.592 152.417,132.64 150.393,130.696C147.853,128.256 142.013,121.483 141.327,121.775C140.641,122.067 145.169,129.506 146.277,132.448C147.121,134.689 148.143,137.531 147.975,139.428C147.824,141.141 146.662,142.809 145.275,143.825C143.714,144.969 140.931,145.814 138.61,146.291C135.993,146.829 132.366,147.191 129.571,147.054C126.943,146.924 123.556,146.801 121.838,145.467C120.12,144.133 119.163,141.353 119.262,139.05C119.39,136.047 121.755,130.619 122.608,127.451C123.267,125 125.362,122.282 124.377,120.043C123.391,117.805 117.838,116.28 116.697,114.019C115.557,111.762 117.239,108.991 117.527,106.479C117.961,102.688 118.487,96.311 119.305,91.274C120.253,85.441 123.026,76.044 123.213,71.479C123.324,68.785 121.807,65.739 120.429,63.884C119.133,62.139 117.054,60.88 114.947,60.351C112.84,59.823 108.197,59.156 107.788,60.713Z"/>
    <path d="M130.176,98.729C129.472,99.623 132.777,102.171 132.329,104.023C131.814,106.153 127.236,109.036 127.085,111.506C126.934,113.976 131.414,116.648 131.421,118.844C131.428,121.04 128.889,123.031 127.126,124.682C124.313,127.317 116.583,132.702 114.545,134.651C114.12,135.058 114.306,136.379 114.893,136.38C116.251,136.382 120.244,135.714 122.689,134.665C126.373,133.084 133.787,129.143 136.998,126.894C139.066,125.446 141.212,123.08 141.955,121.17C142.652,119.382 142.1,116.895 141.462,115.435C140.861,114.059 138.063,113.39 138.127,112.409C138.191,111.428 140.95,110.831 141.846,109.549C142.788,108.203 143.694,105.927 143.775,104.331C143.852,102.802 143.535,100.916 142.33,99.971C141.126,99.026 138.515,98.862 136.549,98.661C134.523,98.454 130.879,97.835 130.176,98.729Z"/>
    <path d="M84.765,66.151C83.823,66.841 89.517,69.567 88.92,71.838C88.117,74.895 79.191,83.033 79.946,84.491C80.701,85.949 89.809,82.035 93.453,80.586C96.436,79.401 100.623,77.359 101.81,75.802C102.765,74.55 101.625,72.418 100.577,71.244C99.371,69.893 96.788,68.41 94.577,67.698C91.941,66.849 85.708,65.461 84.765,66.151Z"/>
    <path d="M73.016,91.131C73.131,92.108 78.313,95.948 81.523,96.477C84.732,97.006 89.114,94.966 92.272,94.306C95.011,93.735 98.854,93.234 100.473,92.52C101.364,92.127 101.926,90.993 101.987,90.021C102.05,89.009 101.536,87.257 100.854,86.45C100.171,85.642 98.944,84.963 97.89,85.174C95.627,85.628 90.118,88.261 87.275,89.168C85.18,89.837 83.016,90.318 80.836,90.618C78.46,90.945 72.902,90.155 73.016,91.131Z"/>
    <path d="M92.747,91.613C93.593,90.474 89.821,91.959 88.645,92.753C86.441,94.241 81.558,98.299 79.524,100.539C78.081,102.129 76.568,104.881 76.441,106.195C76.339,107.264 77.865,107.839 78.766,108.422C79.927,109.173 81.702,110.448 83.407,110.702C85.324,110.989 88.016,110.574 90.27,110.14C92.946,109.626 97.279,108.447 99.463,107.614C100.904,107.065 103.067,106.192 103.376,105.145C103.594,104.406 102.716,102.253 101.76,101.48C101.015,100.878 100.192,100.259 99.251,100.078C98.118,99.859 96.375,100.006 94.959,100.167C93.542,100.328 92.137,100.677 90.752,101.043C89.174,101.46 87.043,102.15 85.488,102.67C84.117,103.128 81.962,104.376 81.419,104.163C80.876,103.949 81.584,102.105 82.23,101.39C84.118,99.299 91.678,93.052 92.747,91.613Z"/>
    <path d="M58.336,121.288C57.275,122.804 65.387,127.281 67.977,128.352C69.803,129.107 71.951,128.178 73.872,127.713C78.108,126.69 89.4,123.563 93.389,122.212C95.007,121.664 97,120.654 97.802,119.608C98.552,118.63 98.821,116.953 98.201,115.933C97.58,114.913 95.566,113.73 94.078,113.486C92.59,113.242 90.841,114.01 89.271,114.47C85.981,115.432 79.445,118.134 74.341,119.259C69.185,120.395 59.397,119.773 58.336,121.288Z"/>
    <path d="M86.676,117.762C83.798,119.398 78.287,123.832 75.23,127.027C72.449,129.933 70.068,133.3 68.332,136.929C66.565,140.625 64.97,146.201 64.627,149.199C64.402,151.171 64.999,154.165 66.279,154.921C67.559,155.676 71.047,155.348 72.308,153.735C73.825,151.796 74.041,146.661 75.378,143.286C77.086,138.975 79.705,132.213 82.558,127.867C85.223,123.807 91.81,118.896 92.496,117.212C93.183,115.528 88.37,116.799 86.676,117.762Z"/>
    <path d="M72.041,149.982C73.753,148.063 78.336,137.83 80.609,134.95C81.755,133.498 83.957,132.732 85.681,132.702C87.405,132.673 90.657,133.129 90.951,134.773C91.246,136.416 87.823,139.742 87.446,142.565C87.005,145.875 87.282,152.506 88.304,154.631C89.073,156.229 92.292,156.535 93.581,155.317C94.966,154.008 95.877,149.659 96.615,146.779C97.346,143.921 97.961,140.312 98.005,138.038C98.038,136.363 97.737,134.423 96.882,133.139C96.027,131.855 94.377,130.968 92.874,130.334C91.084,129.579 88.444,128.347 86.141,128.605C83.768,128.872 80.45,129.882 78.637,131.931C76.003,134.908 71.438,143.457 70.339,146.466C69.892,147.689 71.174,150.954 72.041,149.982Z"/>
    <path d="M93.509,151.487C93.069,152.359 91.307,152.075 90.579,151.576C89.85,151.078 89.205,149.627 89.139,148.495C89.001,146.125 88.968,140.729 89.752,137.351C90.505,134.105 92.148,131.099 93.843,128.23C95.936,124.685 98.978,119.723 102.313,116.085C108.347,109.5 124.791,93.853 130.048,88.722C131.268,87.531 133.409,86.136 133.85,85.3C134.157,84.718 133.231,84.079 132.692,83.701C131.352,82.763 125.029,80.115 125.812,79.67C126.595,79.225 134.348,80.138 137.388,81.03C139.873,81.759 143.007,83.692 144.052,85.023C144.878,86.075 144.421,87.919 143.658,89.017C142.835,90.2 140.612,91.061 139.115,92.12C134.634,95.292 123.095,101.442 116.768,108.048C110.242,114.862 103.835,125.765 99.958,133.005C96.878,138.757 95.073,148.391 93.509,151.487Z"/>
  </g>
  <g transform="matrix(-1.20471,0,0,-1.20471,243.111,292.112)">
    <path d="M88.776,167.53C88.044,168.736 94.472,172.768 96.928,173.566C99.054,174.256 101.349,172.869 103.514,172.315C106.582,171.531 112.382,169.401 115.334,168.86C117.268,168.506 119.319,169.026 121.227,169.073C123.078,169.119 125.534,169.51 126.781,169.144C127.734,168.864 128.957,167.715 128.711,166.873C128.466,166.03 126.557,164.858 125.31,164.089C123.824,163.173 121.837,161.564 119.798,161.378C117.667,161.185 114.92,162.286 112.527,162.927C109.448,163.752 105.155,165.583 101.325,166.325C97.366,167.092 89.509,166.323 88.776,167.53Z"/>
    <path d="M116.723,165.83C116.066,169.925 117.52,180.75 115.761,185.687C114.23,189.985 109.287,192.472 106.172,195.455C103.235,198.267 99.031,201.667 97.074,203.582C96.054,204.579 94.328,205.544 94.428,206.944C94.529,208.343 96.639,210.9 97.675,211.98C98.436,212.773 99.973,213.982 100.641,213.423C101.309,212.864 101.647,209.823 101.684,208.626C101.709,207.786 100.273,206.841 100.863,206.242C103.728,203.332 114.039,197.321 118.876,191.163C123.752,184.957 128.513,173.308 130.117,169.003C130.584,167.75 129.567,166.139 128.501,165.332C126.766,164.018 121.669,161.037 119.706,161.12C117.849,161.198 117.018,163.995 116.723,165.83Z"/>
    <path d="M95.435,186.53C95.932,187.293 99.133,186.407 100.93,186.011C104.64,185.194 113.546,182.122 117.697,181.623C120.43,181.295 123.849,182.81 125.836,183.02C127.091,183.152 129.183,183.541 129.621,182.882C130.058,182.223 129.44,179.965 128.46,179.066C127.475,178.163 125.348,177.795 123.711,177.462C121.696,177.053 118.804,176.233 116.369,176.608C112.075,177.269 101.439,179.777 97.95,181.431C96.238,182.243 94.939,185.766 95.435,186.53Z"/>
    <path d="M96.147,183.421C95.18,184.535 94.227,187.962 94.856,189.986C95.486,192.01 98.147,194.223 99.925,195.564C101.555,196.793 103.488,198.055 105.528,198.033C107.675,198.01 111.884,196.486 112.804,195.425C113.71,194.38 111.896,192.256 111.048,191.665C110.201,191.074 108.755,192.282 107.719,191.878C106.297,191.322 103.691,189.76 102.515,188.331C101.379,186.952 101.721,184.122 100.659,183.303C99.598,182.485 97.115,182.307 96.147,183.421Z"/>
    <path d="M94.457,207.168C94.912,208.72 97.639,213.201 99.884,214.473C102.128,215.745 105.254,215.043 107.926,214.799C111.875,214.437 119.801,212.674 123.58,212.304C125.91,212.075 129.158,213.191 130.601,212.573C131.918,212.009 132.404,210.019 132.234,208.595C132.044,207.008 130.865,204.198 129.462,203.048C128.059,201.899 125.412,201.867 123.817,201.699C122.51,201.561 121.177,201.776 119.89,202.041C115.8,202.883 102.476,206.184 99.275,206.75C98.642,206.862 101.037,205.7 100.683,205.435C100.33,205.17 98.19,204.87 97.152,205.159C96.114,205.448 94.142,206.093 94.457,207.168Z"/>
    <path d="M124.38,177.217C125.488,177.939 128.522,179.527 129.357,181.046C130.192,182.566 129.793,184.704 129.391,186.333C128.989,187.962 128.279,189.761 126.943,190.818C124.849,192.473 120.308,194.672 116.826,196.268C111.974,198.491 99.096,204.806 97.835,204.155C96.574,203.503 106.291,195.906 109.262,192.357C111.712,189.431 113.421,185.471 115.662,182.865C117.695,180.501 121.257,177.659 122.71,176.717C123.198,176.402 123.893,176.9 124.38,177.217Z"/>
  </g>
</svg>
