<?xml version="1.0" encoding="UTF-8" standalone="no"?>
<!DOCTYPE svg PUBLIC "-//W3C//DTD SVG 1.1//EN" "http://www.w3.org/Graphics/SVG/1.1/DTD/svg11.dtd">
<svg width="100%" height="100%" viewBox="0 0 220 250" version="1.1" 
  xmlns="http://www.w3.org/2000/svg" 
  xmlns:xlink="http://www.w3.org/1999/xlink" xml:space="preserve" 
  xmlns:serif="http://www.serif.com/" style="fill-rule:evenodd;clip-rule:evenodd;stroke-linejoin:round;stroke-miterlimit:2;">
  <g transform="matrix(0.93913,0,0,0.93913,6.69565,4.89564)">
    <filter id="drop-shadow">
      <feGaussianBlur in="SourceAlpha" stdDeviation="7" />
    </filter>
    <defs>
      <linearGradient id="GradientOverlay">
        <stop offset="0%" stop-color="#000" />
        <stop offset="100%" stop-color="#fff" />
      </linearGradient>
    </defs>
    <path d="M50,40L50,40L120,20L190,40L190,40L220,250L20,250L50,40Z" filter="url(#drop-shadow)" opacity="0.6"/>
    <path d="M40,30L40,30L110,10L180,30L180,30L210,240L10,240L40,30Z" style="fill:rgb(255,225,167);"/>
    <path d="M40,30L40,30L110,10L180,30L180,30L210,240L10,240L40,30Z" style="fill:url(#GradientOverlay);" opacity="0.1"/>
  </g>
  <g transform="matrix(1.29833,0,0,1.29833,-26.1224,-37.8538)">
    <path d="M72.686,71.673C72.537,72.421 77.762,75.304 80.733,75.616C84.129,75.972 89.838,74.414 93.061,73.814C95.432,73.373 98.585,73.097 100.069,72.018C101.431,71.028 102.094,68.26 101.967,67.337C101.84,66.414 100.196,66.201 99.306,66.479C98.055,66.871 97.203,68.264 94.462,69.688C91.758,71.093 85.256,70.799 81.627,71.13C78.653,71.401 72.835,70.926 72.686,71.673Z"/>
    <path d="M99.916,71.37C100.913,70.458 101.904,68.603 102.003,67.255C102.101,65.932 101.827,64.378 101.145,63.353C100.463,62.328 99.061,61.553 97.909,61.104C96.76,60.656 95.447,60.43 94.234,60.658C92.784,60.931 90.522,61.562 89.211,62.74C87.9,63.918 87.247,66.026 86.368,67.726C85.235,69.917 83.335,73.352 82.412,75.889C81.588,78.156 80.921,81.525 80.833,82.949C80.795,83.555 81.472,84.1 81.882,84.438C82.271,84.758 82.794,85.042 83.294,84.977C83.933,84.895 85.337,84.733 85.716,83.941C86.12,83.097 85.35,81.204 85.716,79.911C86.319,77.786 88.433,73.272 89.331,71.19C89.881,69.916 90.535,68.417 91.104,67.423C91.557,66.63 91.917,65.619 92.742,65.226C93.631,64.802 94.897,64.502 96.436,64.88C97.153,65.057 96.693,66.868 96.421,67.691C96.15,68.514 95.007,69.181 94.806,69.82C94.63,70.378 94.977,70.992 95.214,71.526C95.924,73.127 99.291,71.941 99.916,71.37Z"/>
    <g transform="matrix(1,0,0,1,0.0105041,-1.21117)">
      <path d="M80.958,84.801C81.365,85.561 82.937,86.53 84.122,86.441C86.026,86.299 90.622,84.35 92.383,83.944C93.853,83.605 97.816,82.957 98.033,82.846C98.722,82.494 99.443,82.19 99.288,81.628C99.114,80.998 98.1,79.355 96.99,79.067C95.73,78.74 93.47,79.377 91.729,79.668C89.753,79.998 86.807,80.678 85.132,81.047C83.976,81.301 82.376,81.254 81.68,81.88C80.985,82.505 80.551,84.041 80.958,84.801Z"/>
    </g>
    <g transform="matrix(1,0,0,1,1.45938,-1.68865)">
      <path d="M97.16,82.356C97.279,82.304 96.74,79.48 88.943,83.938C87.504,84.761 83.716,87.729 82.032,89.177C80.843,90.198 79.486,91.389 78.837,92.626C78.213,93.816 77.884,95.723 78.142,96.598C78.384,97.424 79.529,97.765 80.381,97.88C81.539,98.037 83.554,97.88 85.09,97.538C87.175,97.074 90.663,95.774 92.89,95.098C94.737,94.536 97.352,94.01 98.452,93.48C99.016,93.208 99.725,92.499 99.493,91.917C99.237,91.273 98.05,89.819 96.917,89.617C95.485,89.362 92.816,89.997 90.906,90.385C89.053,90.762 86.512,91.733 85.453,91.946C85.146,92.008 84.304,92.332 84.554,91.667C84.693,91.298 85.107,90.731 86.782,89.407C89.122,87.558 92.162,84.53 97.16,82.356Z"/>
    </g>
    <path d="M94.176,90.772C92.031,91.794 88.234,94.922 86.243,96.652C84.727,97.969 83.248,99.417 82.231,101.149C80.988,103.266 79.568,106.555 78.784,109.353C78.003,112.138 77.711,115.564 77.525,117.939C77.377,119.822 77.149,122.355 77.664,123.603C78.105,124.672 79.717,125.523 80.616,125.426C81.514,125.328 82.747,124.119 83.054,123.02C83.547,121.25 83.418,116.906 83.576,114.81C83.686,113.35 83.5,111.814 84.004,110.44C84.823,108.209 87.009,103.773 88.49,101.423C89.684,99.527 91.323,97.943 92.887,96.338C94.657,94.521 98.896,91.449 99.11,90.521C99.325,89.593 95.662,90.064 94.176,90.772Z"/>
    <path d="M83.406,108.129C84.177,108.578 86.064,102.907 90.67,103.889C91.526,104.072 92.797,104.296 93.487,105.04C94.309,105.924 95.206,107.964 95.599,109.197C95.928,110.23 95.858,111.356 95.844,112.44C95.824,113.97 95.853,117.037 95.479,118.378C95.226,119.285 94.165,119.819 93.599,120.486C93.074,121.103 92.052,121.67 92.078,122.382C92.104,123.095 93.064,124.08 93.755,124.761C94.803,125.795 97.443,126.001 98.511,124.916C99.172,124.244 99.838,123.44 99.999,122.511C100.334,120.592 100.564,116.238 100.519,113.398C100.477,110.743 100.331,107.554 99.73,105.472C99.235,103.753 98.166,101.961 96.915,100.905C95.663,99.849 93.892,99.089 92.22,99.134C90.408,99.183 87.511,99.7 86.042,101.199C84.573,102.698 82.635,107.681 83.406,108.129Z"/>
    <path d="M93.162,123.868C92.243,123.444 90.537,120.468 90.549,118.469C90.563,116.144 92.092,112.674 93.245,109.916C94.659,106.533 96.773,101.906 99.034,98.172C101.305,94.421 104.547,90.134 106.871,87.411C108.662,85.313 110.65,83.305 112.983,81.833C115.777,80.07 121.127,78.043 123.639,76.832C125.128,76.113 127.887,75.415 128.053,74.565C128.218,73.715 124.084,72.095 124.63,71.73C125.682,71.028 127.86,71.648 129.43,71.971C131.315,72.358 134.741,73.09 135.94,74.054C136.916,74.838 137.395,76.763 136.622,77.749C135.787,78.816 132.86,79.632 130.926,80.456C127.619,81.866 120.652,83.796 116.782,86.207C113.222,88.426 110.21,91.56 107.705,94.925C104.975,98.592 102.157,104.369 100.4,108.212C98.974,111.332 97.889,115.848 97.165,117.981C96.819,119 96.662,120.123 96.057,121.012C95.39,121.993 94.08,124.292 93.162,123.868Z"/>
    <path d="M110.245,56.12C109.282,56.736 113.521,60.318 113.863,62.838C114.313,66.151 113.263,72.372 112.943,75.999C112.69,78.873 112.046,82.047 111.945,84.597C111.856,86.832 111.922,89.673 112.336,91.296C112.641,92.488 113.381,93.803 114.432,94.335C115.483,94.867 117.239,94.559 118.642,94.489C120.11,94.415 121.952,94.216 123.239,93.894C124.339,93.619 126.13,93.123 126.365,92.555C126.6,91.988 125.511,90.726 124.647,90.489C123.321,90.124 119.792,90.551 118.409,90.367C117.654,90.266 116.498,90.127 116.349,89.38C116.064,87.955 116.083,84.264 116.701,81.817C117.768,77.595 121.802,67.365 122.748,64.05C122.945,63.358 122.762,62.532 122.378,61.924C121.86,61.106 120.815,59.703 119.642,59.142C117.62,58.174 111.208,55.504 110.245,56.12Z"/>
    <path d="M124.426,90.957C126.114,90.129 127.318,93.057 126.473,94.235C125.913,95.016 124.736,95.894 123.838,96.69C122.615,97.776 120.466,99.397 119.134,100.747C117.914,101.984 116.804,103.823 115.847,104.79C115.139,105.505 114.289,106.251 113.392,106.548C112.494,106.846 111.173,106.995 110.46,106.577C109.747,106.159 108.639,104.872 109.112,104.039C110.114,102.271 113.921,98.147 116.473,95.966C118.856,93.931 122.908,91.701 124.426,90.957Z"/>
    <path d="M109.112,104.039C108.24,105.208 111.837,107.73 113.092,108.341C114.173,108.867 115.519,108.133 116.641,107.704C118.436,107.018 121.672,105.001 123.858,104.225C125.748,103.554 129.026,102.054 129.757,103.048C130.488,104.042 129.255,108.188 128.245,110.188C127.245,112.169 125.043,114.006 123.698,115.05C122.699,115.825 121.414,116.697 120.173,116.453C117.534,115.934 109.428,111.859 107.86,111.937C106.977,111.981 109.601,115.288 110.76,116.765C112.144,118.529 114.929,121.271 116.165,122.524C117.417,123.793 118.521,125.146 120.579,124.986C121.544,124.911 125.017,122.303 126.847,120.499C129.075,118.303 132.399,113.97 133.95,111.809C134.885,110.506 135.652,109.054 136.152,107.53C136.686,105.903 137.96,103.472 137.153,102.043C136.372,100.66 133.518,98.665 132.859,98.31C132.145,97.925 128.671,98.269 126.636,98.691C124.213,99.193 121.101,100.477 118.32,101.325C115.399,102.217 109.983,102.87 109.112,104.039Z"/>
  </g>
  <g transform="matrix(1.48744,0,0,1.48744,-53.4198,-62.5191)">
    <path d="M83.512,135.677C82.792,136.611 88.183,139.937 90.859,140.448C93.536,140.959 96.735,139.583 99.572,138.742C102.677,137.821 106.537,135.87 109.49,134.923C112.035,134.106 117.945,132.32 117.289,133.057C116.632,133.794 107.617,138.074 105.551,139.344C105.129,139.603 104.427,140.519 104.896,140.677C105.552,140.9 108,141.032 109.489,140.677C113.681,139.679 127.096,136.378 130.044,134.688C131.504,133.851 128.622,131.397 127.179,130.533C125.442,129.492 122.125,128.732 119.622,128.442C117.149,128.156 114.57,128.165 112.161,128.796C108.087,129.862 99.953,133.696 95.179,134.843C91.388,135.753 84.232,134.743 83.512,135.677Z"/>
    <path d="M92.348,147.435C92.122,148.365 95.066,151.843 97.297,151.955C100.215,152.102 108.463,148.187 109.855,148.315C111.246,148.443 107.047,151.252 105.646,152.724C103.794,154.668 99.469,158.521 98.743,159.983C98.304,160.867 100.302,161.448 101.289,161.499C102.411,161.556 104.075,160.703 105.475,160.33C107.106,159.895 109.171,159.187 111.075,158.889C113.712,158.475 118.62,157.145 121.298,157.847C124.344,158.644 126.993,161.689 127.466,163.79C127.986,166.103 128.242,168.639 127.283,170.754C126.185,173.172 123.74,176.654 120.882,178.3C117.619,180.179 112.176,181.689 107.702,182.03C103.227,182.371 96.789,181.592 94.035,180.348C92.075,179.462 90.999,176.034 91.179,174.561C91.358,173.088 93.708,171.717 95.113,171.51C96.518,171.303 99.028,172.173 99.609,173.319C100.011,174.113 100.112,175.357 99.325,176.399C98.562,177.409 99.304,180.233 100.104,180.523C100.568,180.692 100.738,180.82 101.478,180.572C104.671,179.502 106.607,175.677 106.111,173.272C105.682,171.188 103.909,169.404 102.074,168.329C100.231,167.248 97.174,166.712 95.052,166.791C93.211,166.859 89.465,168.267 88.691,168.946C87.288,170.175 86.555,171.811 86.143,172.996C85.458,174.967 85.015,179.267 87.607,181.882C92.17,186.487 99.766,188.871 105.562,189.391C108.517,189.656 118.807,187.928 123.923,185.849C127.164,184.532 130.66,182.454 132.681,180.067C134.658,177.732 135.537,174.314 136.049,171.528C136.542,168.844 136.183,165.675 135.754,163.348C135.377,161.31 134.858,159.105 133.471,157.565C131.873,155.79 128.952,153.592 126.166,152.699C123.355,151.797 119.76,151.799 116.605,152.157C113.449,152.515 107.393,155.007 107.234,154.846C107.046,154.657 111.263,152.08 113.106,150.752C114.856,149.49 117.302,147.998 118.289,146.875C118.939,146.136 119.588,144.801 119.03,144.017C118.472,143.233 115.958,142.549 114.942,142.17C114.299,141.929 113.594,141.566 112.93,141.737C110.216,142.438 102.087,145.424 98.657,146.373C96.602,146.942 92.575,146.504 92.348,147.435Z"/>
  </g>
</svg>
